<svg xmlns="http://www.w3.org/2000/svg" viewBox="0 0 273.13 58.76">
  <defs>
    <style>
      .cls-1 {
        fill: #4b4a4f;
      }
    </style>
  </defs>
  <title>Asset 7</title>
  <g id="Layer_2" data-name="Layer 2">
    <g id="Layer_2-2" data-name="Layer 2">
      <text/>      <polygon class="cls-1" points="65 19.07 65 39.07 56.87 39.07 56.87 44.07 48.75 44.07 48.75 49.07 16.25 49.07 16.25 44.07 8.12 44.07 8.12 39.07 0 39.07 0 24.07 8.12 24.07 8.12 34.07 32.5 34.07 32.5 39.07 48.75 39.07 48.75 34.07 56.87 34.07 56.87 29.07 16.25 29.07 16.25 24.07 8.12 24.07 8.12 19.07 16.25 19.07 16.25 14.07 24.37 14.07 24.37 9.07 48.75 9.07 48.75 14.07 56.87 14.07 56.87 19.07 65 19.07"/>
      <g>
        <path class="cls-1" d="M98.53,47.59Q91.1,47.59,87,43c-2.72-3.06-4.08-7.37-4.08-13s1.38-10.15,4.14-13.28,6.69-4.69,11.8-4.69a23.78,23.78,0,0,1,4.94.53,16.53,16.53,0,0,1,3.87,1.26l-1.59,4.4a24.26,24.26,0,0,0-3.75-1.14,17,17,0,0,0-3.6-.45Q88.31,16.69,88.32,30q0,6.31,2.54,9.69t7.55,3.37a23.06,23.06,0,0,0,8.78-1.84v4.59A18.69,18.69,0,0,1,98.53,47.59Z"/>
        <path class="cls-1" d="M144.88,29.81q0,8.39-4.22,13.08T129,47.59a15.38,15.38,0,0,1-8.15-2.15,14.2,14.2,0,0,1-5.5-6.19,21.45,21.45,0,0,1-1.94-9.44q0-8.37,4.19-13t11.62-4.68q7.18,0,11.42,4.79C143.47,20.06,144.88,24.38,144.88,29.81Zm-26.1,0q0,6.57,2.63,10t7.72,3.44q5.09,0,7.73-3.42t2.64-10q0-6.52-2.64-9.92t-7.79-3.39c-3.4,0-6,1.12-7.69,3.34S118.78,25.4,118.78,29.81Z"/>
        <path class="cls-1" d="M181.94,47l-6.28-20.09c-.4-1.23-1.14-4-2.22-8.38h-.25Q171.95,24,171,26.94l-6.47,20h-6l-9.34-34.25h5.44q3.31,12.9,5.05,19.66a81.65,81.65,0,0,1,2,9.09h.25c.23-1.19.6-2.72,1.11-4.61s.95-3.38,1.33-4.48l6.28-19.66h5.62l6.13,19.66a66,66,0,0,1,2.37,9H185a33.91,33.91,0,0,1,.68-3.47q.54-2.34,6.51-25.22h5.38L188.1,47Z"/>
        <path class="cls-1" d="M219.38,12.09a20.26,20.26,0,0,1,4.09.38l-.72,4.81a17.74,17.74,0,0,0-3.75-.47,9.14,9.14,0,0,0-7.11,3.38,12.34,12.34,0,0,0-2.95,8.4V47h-5.19V12.72H208l.6,6.34h.25a15,15,0,0,1,4.59-5.15A10.33,10.33,0,0,1,219.38,12.09Z"/>
        <path class="cls-1" d="M229.44,3.44a3.42,3.42,0,0,1,.88-2.61,3.24,3.24,0,0,1,4.34,0,3.42,3.42,0,0,1,.91,2.6,3.48,3.48,0,0,1-.91,2.61,3,3,0,0,1-2.16.86,3,3,0,0,1-2.18-.86A3.51,3.51,0,0,1,229.44,3.44ZM235.07,47h-5.19V12.72h5.19Z"/>
        <path class="cls-1" d="M260.53,47.59q-7.59,0-12-4.62t-4.39-12.85q0-8.28,4.08-13.15a13.55,13.55,0,0,1,10.95-4.88,12.94,12.94,0,0,1,10.19,4.24q3.75,4.23,3.75,11.17v3.28h-23.6q.16,6,3.05,9.16t8.14,3.12a27.64,27.64,0,0,0,10.94-2.31v4.63a28,28,0,0,1-5.2,1.7A29.62,29.62,0,0,1,260.53,47.59Zm-1.4-31.15a8.47,8.47,0,0,0-6.58,2.68,12.4,12.4,0,0,0-2.89,7.44h17.91q0-4.9-2.19-7.51A7.7,7.7,0,0,0,259.13,16.44Z"/>
      </g>
      <text/>    </g>
  </g>
</svg>
