<svg xmlns="http://www.w3.org/2000/svg" viewBox="0 0 292.27 52.35">
  <defs>
    <style>
      .cls-1 {
        fill: #4b4a4f;
      }
    </style>
  </defs>
  <title>Asset 12</title>
  <g id="Layer_2" data-name="Layer 2">
    <g id="Layer_2-2" data-name="Layer 2">
      <polygon class="cls-1" points="65 22.35 65 42.35 56.87 42.35 56.87 47.35 48.75 47.35 48.75 52.35 16.25 52.35 16.25 47.35 8.12 47.35 8.12 42.35 0 42.35 0 27.35 8.12 27.35 8.12 37.35 32.5 37.35 32.5 42.35 48.75 42.35 48.75 37.35 56.87 37.35 56.87 32.35 16.25 32.35 16.25 27.35 8.12 27.35 8.12 22.35 16.25 22.35 16.25 17.35 24.37 17.35 24.37 12.35 48.75 12.35 48.75 17.35 56.87 17.35 56.87 22.35 65 22.35"/>
      <g>
        <path class="cls-1" d="M119,25l-7.2,2.88c-1.23-4.47-4-6.84-8.43-6.84C97,21,93.26,25.56,93.26,33.7s3.82,12.53,10.15,12.53c5,0,7.92-2.52,8.86-7l7.06,2.38c-2,6.55-7.42,10.73-15.77,10.73-11.38,0-18.08-7-18.08-18.72s6.7-18.72,17.93-18.72C112.13,14.91,116.81,19.08,119,25Z"/>
        <path class="cls-1" d="M157.49,33.63c0,11.73-6.7,18.72-17.93,18.72s-17.93-7-17.93-18.72,6.69-18.72,17.93-18.72S157.49,21.89,157.49,33.63Zm-28.09,0c0,8.13,3.68,12.67,10.16,12.67s10.22-4.54,10.22-12.67S146,21,139.56,21,129.4,25.49,129.4,33.63Z"/>
        <path class="cls-1" d="M216.38,15.63l-12,36h-8.42l-9.08-27.22-8.64,27.22H169.8l-12-36h8.35l8.14,28.73,9-28.73h7.63l9,28.73L208,15.63Z"/>
        <path class="cls-1" d="M242.3,15.63l-1.22,7a9.59,9.59,0,0,0-4.54-.93c-4.32,0-9.07,3.45-9.07,10.8V51.63h-7.71v-36h6.56L227,22c1.95-4.68,5.77-7.12,11.31-7.12A9.41,9.41,0,0,1,242.3,15.63Z"/>
        <path class="cls-1" d="M243.67,4.75c0-3,1.87-4.75,5.18-4.75S254,1.73,254,4.75s-1.8,4.83-5.11,4.83S243.67,7.78,243.67,4.75Zm9,46.88H245v-36h7.71Z"/>
        <path class="cls-1" d="M292,36.51H265.63c.86,6.33,4.6,9.72,10.44,9.72,4.75,0,7.92-1.73,9.07-4.9L291.55,44c-2.6,5.32-7.56,8.35-15.48,8.35-11.38,0-18.08-7-18.08-18.72s6.34-18.72,17.57-18.72c10.8,0,16.71,7.2,16.71,17.64A30.57,30.57,0,0,1,292,36.51ZM265.7,30.6h19.37C284.35,24.55,281,21,275.56,21,269.87,21,266.49,24.41,265.7,30.6Z"/>
      </g>
    </g>
  </g>
</svg>
