<svg xmlns="http://www.w3.org/2000/svg" viewBox="0 0 269.89 64.21">
  <defs>
    <style>
      .cls-1 {
        fill: #4b4a4f;
      }

      .cls-2 {
        fill: none;
      }

      .cls-3 {
        fill: #e1dee5;
      }
    </style>
  </defs>
  <title>cowrie_outlines</title>
  <g id="Layer_1" data-name="Layer 1">
    <g>
      <g>
        <path class="cls-1" d="M397,342.31l.09,0h.17Z" transform="translate(-378.64 -300.87)"/>
        <path class="cls-1" d="M387,341.42l-.29.28h0Z" transform="translate(-378.64 -300.87)"/>
      </g>
      <path class="cls-1" d="M442.27,342.61l-.8-2.2-1.4-2.3-1.6-2.25-1.1-1h0a19.08,19.08,0,0,0-3.72-3.68,27,27,0,0,0-6.36-3.44c-2.07-.81-4.43-.86-6.5-1.66a17.16,17.16,0,0,0-7.85-.78,41.25,41.25,0,0,0-10.1,2.22h0a51.86,51.86,0,0,0-6.61,2.85c-.89.46-1.73,1-2.59,1.5L388.29,335l-4.38,3-3.69,3.74-1.15,1.83-.43,2,.52,1.81,1.29,3.15.09.23a2.77,2.77,0,0,0,.86,1.11c1.46,1.15,3,2.15,4.55,3.22l.21.15a.1.1,0,0,0,.11.1c3.55,2.41,7.14,4.79,11.23,6.13a59.21,59.21,0,0,0,16.66,3A35.31,35.31,0,0,0,430.51,361a18.91,18.91,0,0,0,7.86-6.53l1.38-2.05a4.47,4.47,0,0,1,.4-.71,6,6,0,0,0,1.22-2.37h0l.84-2.49.43-1.47v-1.5Zm-6.86,6.07c-1,.4-2.07.51-3.09.83s-1.93.76-2.91,1.13a6,6,0,0,1-.64.19l-5.83,1.57-4.39.31-3.22-.31-3.41-.27-3.35-.76h-.05l-.15,0h0l-1.87-.42-.41-.09-1.82-.41-.14,0h0l-4.23-.65h0l-.14,0-3.36-.52-2-.4h-.08l-.13,0H394l-.54-.12-.28-.05-1.38-.28h-.06l-.3-.09-1.79-.34-3.72-2h0a7.32,7.32,0,0,1-.43-1.2v-1.89l1.14-1.07h0l.3-.27,3.37-.09,2.51.45.67.06,1.89.19.32,0,1.3.25.26,0,1,0,3.67.27,1,.2,2.91.26h1.17a8.79,8.79,0,0,1,1.61-.16,38.84,38.84,0,0,1,5.61.11c2,.28,3.91,1,5.9,1.39a7.33,7.33,0,0,0,2.12-.3,19.92,19.92,0,0,1,3.81-.46c2.54.13,5.07.58,7.61.73a22.24,22.24,0,0,0,3.5-.41,14.61,14.61,0,0,1,1.48,0C438.78,346.47,437.42,347.85,435.41,348.68Z" transform="translate(-378.64 -300.87)"/>
    </g>
    <path class="cls-2" d="M438.69,344c.09,2.48-1.27,3.86-3.28,4.69-1,.4-2.07.51-3.09.83s-1.93.76-2.91,1.13a6,6,0,0,1-.64.19l-5.83,1.57-4.39.31-3.22-.31-3.41-.27-3.35-.76h-.05l-.15,0h0l-1.87-.42-.41-.09-1.82-.41-.14,0h0l-4.23-.65h0l-.14,0-3.36-.52-3-.47-1.49-.43h-.06l-.3-.09-1.79-.34-3.72-2h0a7.32,7.32,0,0,1-.43-1.2v-1.89l1.14-1.07.29-.28,3.37-.09,2.51.45.67.06,1.89.19.32,0,1.3.25.09,0h.17l1,0,3.67.27,1,.2,2.91.26h1.17a8.79,8.79,0,0,1,1.61-.16,38.84,38.84,0,0,1,5.61.11c2,.28,3.91,1,5.9,1.39a7.33,7.33,0,0,0,2.12-.3,19.92,19.92,0,0,1,3.81-.46c2.54.13,5.07.58,7.61.73a22.24,22.24,0,0,0,3.5-.41A14.61,14.61,0,0,1,438.69,344Z" transform="translate(-378.64 -300.87)"/>
    <polygon class="cls-3" points="18.63 41.47 18.46 41.46 18.37 41.44 18.63 41.47"/>
    <path class="cls-1" d="M387,346.58" transform="translate(-378.64 -300.87)"/>
  </g>
  <g id="Layer_2" data-name="Layer 2">
    <g>
      <path class="cls-1" d="M473.94,365.08q-7.44,0-11.52-4.58t-4.07-12.95q0-8.6,4.14-13.28t11.79-4.69a23.71,23.71,0,0,1,4.94.53,16.07,16.07,0,0,1,3.88,1.25l-1.6,4.41a24.68,24.68,0,0,0-3.75-1.15,16.8,16.8,0,0,0-3.59-.45q-10.44,0-10.44,13.31,0,6.31,2.55,9.69t7.54,3.38a23.09,23.09,0,0,0,8.79-1.85v4.6A18.85,18.85,0,0,1,473.94,365.08Z" transform="translate(-378.64 -300.87)"/>
      <path class="cls-1" d="M520.28,347.3q0,8.37-4.22,13.08t-11.65,4.7a15.45,15.45,0,0,1-8.16-2.16,14.26,14.26,0,0,1-5.5-6.19,21.54,21.54,0,0,1-1.94-9.43c0-5.59,1.4-9.93,4.19-13.05s6.67-4.67,11.63-4.67q7.19,0,11.42,4.78T520.28,347.3Zm-26.09,0q0,6.56,2.62,10c1.75,2.29,4.33,3.43,7.72,3.43s6-1.14,7.74-3.42,2.64-5.62,2.64-10-.88-7.66-2.64-9.92-4.36-3.4-7.8-3.4-6,1.12-7.69,3.35S494.19,342.88,494.19,347.3Z" transform="translate(-378.64 -300.87)"/>
      <path class="cls-1" d="M557.35,364.45l-6.29-20.09q-.59-1.85-2.21-8.38h-.25q-1.26,5.47-2.19,8.44l-6.47,20h-6L524.6,330.2H530q3.32,12.92,5.05,19.66a77.1,77.1,0,0,1,2,9.09h.25c.23-1.18.6-2.72,1.11-4.61s1-3.38,1.33-4.48L546,330.2h5.63l6.12,19.66a66.23,66.23,0,0,1,2.38,9h.25a30.73,30.73,0,0,1,.67-3.47q.54-2.34,6.52-25.22H573l-9.47,34.25Z" transform="translate(-378.64 -300.87)"/>
      <path class="cls-1" d="M594.78,329.58a20.4,20.4,0,0,1,4.1.37l-.72,4.82a17.25,17.25,0,0,0-3.75-.47,9.13,9.13,0,0,0-7.11,3.37,12.3,12.3,0,0,0-2.95,8.41v18.37h-5.19V330.2h4.28l.59,6.35h.25a15,15,0,0,1,4.6-5.16A10.32,10.32,0,0,1,594.78,329.58Z" transform="translate(-378.64 -300.87)"/>
      <path class="cls-1" d="M604.85,320.92a3.47,3.47,0,0,1,.87-2.61,3.22,3.22,0,0,1,4.34,0,3.36,3.36,0,0,1,.91,2.59,3.41,3.41,0,0,1-.91,2.61,3.17,3.17,0,0,1-4.34,0A3.51,3.51,0,0,1,604.85,320.92Zm5.62,43.53h-5.19V330.2h5.19Z" transform="translate(-378.64 -300.87)"/>
      <path class="cls-1" d="M635.94,365.08q-7.59,0-12-4.63t-4.4-12.84q0-8.28,4.08-13.16a13.55,13.55,0,0,1,11-4.87,12.91,12.91,0,0,1,10.18,4.23q3.75,4.24,3.75,11.17v3.29H624.94q.15,6,3,9.15c1.92,2.09,4.64,3.13,8.14,3.13a27.43,27.43,0,0,0,10.93-2.32v4.63a27.08,27.08,0,0,1-5.2,1.7A28.73,28.73,0,0,1,635.94,365.08Zm-1.41-31.16a8.45,8.45,0,0,0-6.57,2.69,12.41,12.41,0,0,0-2.9,7.44H643q0-4.91-2.19-7.52A7.7,7.7,0,0,0,634.53,333.92Z" transform="translate(-378.64 -300.87)"/>
    </g>
    <text x="-378.64" y="-300.87"/>    <text x="-378.64" y="-300.87"/>  </g>
</svg>
