<svg xmlns="http://www.w3.org/2000/svg" viewBox="0 0 286.36 52.28">
  <defs>
    <style>
      .cls-1 {
        fill: #4b4a4f;
      }
    </style>
  </defs>
  <title>Asset 9</title>
  <g id="Layer_2" data-name="Layer 2">
    <g id="Layer_2-2" data-name="Layer 2">
      <polygon class="cls-1" points="65 22.28 65 42.28 56.87 42.28 56.87 47.28 48.75 47.28 48.75 52.28 16.25 52.28 16.25 47.28 8.12 47.28 8.12 42.28 0 42.28 0 27.28 8.12 27.28 8.12 37.28 32.5 37.28 32.5 42.28 48.75 42.28 48.75 37.28 56.87 37.28 56.87 32.28 16.25 32.28 16.25 27.28 8.12 27.28 8.12 22.28 16.25 22.28 16.25 17.28 24.37 17.28 24.37 12.28 48.75 12.28 48.75 17.28 56.87 17.28 56.87 22.28 65 22.28"/>
      <g>
        <path class="cls-1" d="M136.31,14.83c-10.87,0-17.42,7.06-17.42,18.72s6.55,18.72,17.42,18.72,17.43-7.05,17.43-18.72S147.18,14.83,136.31,14.83Zm0,32.48c-7.27,0-11.66-5.19-11.66-13.76S129,19.8,136.31,19.8,148,25,148,33.55,143.58,47.31,136.31,47.31Z"/>
        <path class="cls-1" d="M110.25,39.82l5.33,1.87c-2.45,6.62-7.64,10.58-15.27,10.58-10.87,0-17.42-7.05-17.42-18.72s6.55-18.72,17.42-18.72c7.42,0,12.24,3.67,14.91,9.58L109.75,27c-1.52-4.61-4.61-7.13-9.58-7.13C93,19.87,88.65,25,88.65,33.55S93,47.23,100.17,47.23C105.78,47.23,109.17,44.57,110.25,39.82Z"/>
        <path class="cls-1" d="M211.41,15.55l-12.53,36h-5.76L183,22.9l-9.58,28.66h-5.76l-12.53-36h6.41l9.08,29.31,9.79-29.31h5.76l9.79,29.31L205,15.55Z"/>
        <path class="cls-1" d="M237.11,15.55,236,21.17a9.84,9.84,0,0,0-4.54-.94c-4.32,0-9.5,3.82-9.5,11.89V51.56h-5.76v-36h4.68l.79,5.91c2-4.39,5.91-6.63,11.52-6.63A9.3,9.3,0,0,1,237.11,15.55Z"/>
        <path class="cls-1" d="M239.49,4.32a4.32,4.32,0,1,1,8.64,0,4.32,4.32,0,0,1-8.64,0Zm7.2,47.24h-5.76v-36h5.76Z"/>
        <path class="cls-1" d="M286.07,35.72H258.93c.72,7.27,5.11,11.52,11.73,11.52,5.26,0,8.86-1.88,10.16-5.33l4.82,2.52c-2.74,4.89-7.2,7.85-15,7.85-10.87,0-17.42-7.06-17.42-18.72s6.12-18.73,17-18.73c10.44,0,16.13,7.56,16.13,16.85A27.53,27.53,0,0,1,286.07,35.72ZM259,30.6h21.82c-.8-6.62-4.47-10.73-10.59-10.73C263.82,19.87,259.86,23.83,259,30.6Z"/>
      </g>
    </g>
  </g>
</svg>
