<svg xmlns="http://www.w3.org/2000/svg" viewBox="0 0 273.24 80.92">
  <defs>
    <style>
      .cls-1, .cls-4 {
        fill: #4b4a4f;
      }

      .cls-2 {
        fill: none;
      }

      .cls-3 {
        fill: #e1dee5;
      }

      .cls-4 {
        font-size: 64px;
        font-family: OpenSans, Open Sans;
      }
    </style>
  </defs>
  <title>latest</title>
  <g id="Layer_1" data-name="Layer 1">
    <g>
      <g>
        <path class="cls-1" d="M397,342.31l.09,0h.17Z" transform="translate(-378.64 -300.87)"/>
        <path class="cls-1" d="M387,341.42l-.29.28h0Z" transform="translate(-378.64 -300.87)"/>
      </g>
      <path class="cls-1" d="M442.27,342.61l-.8-2.2-1.4-2.3-1.6-2.25-1.1-1h0a19.08,19.08,0,0,0-3.72-3.68,27,27,0,0,0-6.36-3.44c-2.07-.81-4.43-.86-6.5-1.66a17.16,17.16,0,0,0-7.85-.78,41.25,41.25,0,0,0-10.1,2.22h0a51.86,51.86,0,0,0-6.61,2.85c-.89.46-1.73,1-2.59,1.5L388.29,335l-4.38,3-3.69,3.74-1.15,1.83-.43,2,.52,1.81,1.29,3.15.09.23a2.77,2.77,0,0,0,.86,1.11c1.46,1.15,3,2.15,4.55,3.22l.21.15a.1.1,0,0,0,.11.1c3.55,2.41,7.14,4.79,11.23,6.13a59.21,59.21,0,0,0,16.66,3A35.31,35.31,0,0,0,430.51,361a18.91,18.91,0,0,0,7.86-6.53l1.38-2.05a4.47,4.47,0,0,1,.4-.71,6,6,0,0,0,1.22-2.37h0l.84-2.49.43-1.47v-1.5Zm-6.86,6.07c-1,.4-2.07.51-3.09.83s-1.93.76-2.91,1.13a6,6,0,0,1-.64.19l-5.83,1.57-4.39.31-3.22-.31-3.41-.27-3.35-.76h-.05l-.15,0h0l-1.87-.42-.41-.09-1.82-.41-.14,0h0l-4.23-.65h0l-.14,0-3.36-.52-2-.4h-.08l-.13,0H394l-.54-.12-.28-.05-1.38-.28h-.06l-.3-.09-1.79-.34-3.72-2h0a7.32,7.32,0,0,1-.43-1.2v-1.89l1.14-1.07h0l.3-.27,3.37-.09,2.51.45.67.06,1.89.19.32,0,1.3.25.26,0,1,0,3.67.27,1,.2,2.91.26h1.17a8.79,8.79,0,0,1,1.61-.16,38.84,38.84,0,0,1,5.61.11c2,.28,3.91,1,5.9,1.39a7.33,7.33,0,0,0,2.12-.3,19.92,19.92,0,0,1,3.81-.46c2.54.13,5.07.58,7.61.73a22.24,22.24,0,0,0,3.5-.41,14.61,14.61,0,0,1,1.48,0C438.78,346.47,437.42,347.85,435.41,348.68Z" transform="translate(-378.64 -300.87)"/>
    </g>
    <path class="cls-2" d="M438.69,344c.09,2.48-1.27,3.86-3.28,4.69-1,.4-2.07.51-3.09.83s-1.93.76-2.91,1.13a6,6,0,0,1-.64.19l-5.83,1.57-4.39.31-3.22-.31-3.41-.27-3.35-.76h-.05l-.15,0h0l-1.87-.42-.41-.09-1.82-.41-.14,0h0l-4.23-.65h0l-.14,0-3.36-.52-3-.47-1.49-.43h-.06l-.3-.09-1.79-.34-3.72-2h0a7.32,7.32,0,0,1-.43-1.2v-1.89l1.14-1.07.29-.28,3.37-.09,2.51.45.67.06,1.89.19.32,0,1.3.25.09,0h.17l1,0,3.67.27,1,.2,2.91.26h1.17a8.79,8.79,0,0,1,1.61-.16,38.84,38.84,0,0,1,5.61.11c2,.28,3.91,1,5.9,1.39a7.33,7.33,0,0,0,2.12-.3,19.92,19.92,0,0,1,3.81-.46c2.54.13,5.07.58,7.61.73a22.24,22.24,0,0,0,3.5-.41A14.61,14.61,0,0,1,438.69,344Z" transform="translate(-378.64 -300.87)"/>
    <polygon class="cls-3" points="18.63 41.47 18.46 41.46 18.37 41.44 18.63 41.47"/>
    <path class="cls-1" d="M387,346.58" transform="translate(-378.64 -300.87)"/>
  </g>
  <g id="Layer_2" data-name="Layer 2">
    <text class="cls-4" transform="translate(76.11 63.58)">cowrie</text>
    <text x="-378.64" y="-300.87"/>  </g>
</svg>
