<svg xmlns="http://www.w3.org/2000/svg" xmlns:xlink="http://www.w3.org/1999/xlink" viewBox="0 0 470.75 408.96">
  <defs>
    <style>
      .cls-1 {
        isolation: isolate;
      }

      .cls-2 {
        fill: url(#linear-gradient);
      }

      .cls-3 {
        fill: #fff;
      }

      .cls-4 {
        fill: url(#linear-gradient-2);
      }

      .cls-5 {
        fill: url(#linear-gradient-3);
      }

      .cls-6 {
        fill: url(#linear-gradient-4);
      }

      .cls-7 {
        fill: url(#linear-gradient-5);
      }

      .cls-8 {
        fill: url(#linear-gradient-6);
      }

      .cls-9 {
        fill: url(#linear-gradient-7);
      }

      .cls-10 {
        fill: url(#linear-gradient-8);
      }

      .cls-11 {
        fill: url(#linear-gradient-9);
      }

      .cls-12 {
        fill: url(#linear-gradient-10);
      }

      .cls-13 {
        fill: url(#linear-gradient-11);
      }

      .cls-14 {
        fill: url(#linear-gradient-12);
      }

      .cls-15 {
        fill: url(#linear-gradient-13);
      }

      .cls-16 {
        fill: url(#linear-gradient-14);
      }

      .cls-17 {
        fill: url(#linear-gradient-15);
      }

      .cls-18 {
        fill: url(#linear-gradient-16);
      }

      .cls-19 {
        fill: url(#linear-gradient-17);
      }

      .cls-20 {
        fill: url(#linear-gradient-18);
      }

      .cls-21 {
        fill: url(#linear-gradient-19);
      }

      .cls-22 {
        fill: url(#linear-gradient-20);
      }

      .cls-23 {
        fill: url(#linear-gradient-21);
      }

      .cls-24 {
        fill: url(#linear-gradient-22);
      }

      .cls-25 {
        fill: url(#linear-gradient-23);
      }

      .cls-26 {
        fill: url(#linear-gradient-24);
      }

      .cls-27 {
        fill: url(#linear-gradient-25);
      }

      .cls-28 {
        fill: url(#linear-gradient-26);
      }

      .cls-29 {
        fill: url(#linear-gradient-27);
      }

      .cls-30 {
        fill: url(#linear-gradient-28);
      }

      .cls-31 {
        fill: url(#linear-gradient-29);
      }

      .cls-32 {
        fill: url(#linear-gradient-30);
      }

      .cls-33 {
        fill: url(#linear-gradient-31);
      }

      .cls-34 {
        fill: url(#linear-gradient-32);
      }

      .cls-35 {
        fill: url(#linear-gradient-33);
      }

      .cls-36 {
        fill: url(#linear-gradient-34);
      }

      .cls-37 {
        fill: url(#linear-gradient-35);
      }

      .cls-38 {
        fill: url(#linear-gradient-36);
      }

      .cls-39 {
        fill: url(#linear-gradient-37);
      }

      .cls-40 {
        fill: url(#linear-gradient-38);
      }

      .cls-41 {
        fill: url(#linear-gradient-39);
      }

      .cls-42 {
        fill: url(#linear-gradient-40);
      }

      .cls-43 {
        fill: #ffc555;
      }

      .cls-44 {
        fill: #f5f5f5;
        mix-blend-mode: hard-light;
      }

      .cls-45 {
        fill: url(#linear-gradient-41);
      }

      .cls-46 {
        fill: url(#linear-gradient-42);
      }

      .cls-47 {
        fill: #e0e0e0;
      }

      .cls-48 {
        fill: #1487e3;
      }

      .cls-49 {
        fill: #78c2ff;
      }

      .cls-50 {
        fill: #eea886;
      }

      .cls-51 {
        fill: #282b45;
      }

      .cls-52 {
        fill: #292c47;
      }

      .cls-53 {
        fill: #3d416b;
      }

      .cls-54 {
        fill: #cfbeb6;
      }

      .cls-55 {
        fill: #fccca2;
      }

      .cls-56 {
        fill: #23263d;
      }

      .cls-57 {
        fill: #5a609c;
      }

      .cls-58 {
        fill: #807066;
      }

      .cls-59 {
        fill: #191b2b;
      }

      .cls-60 {
        fill: #a77860;
      }

      .cls-61 {
        fill: #414670;
      }

      .cls-62 {
        fill: #eddad3;
      }

      .cls-63 {
        fill: #4aafff;
      }

      .cls-64 {
        fill: #1a598c;
      }

      .cls-65 {
        fill: #2273b5;
      }

      .cls-66 {
        fill: #3788cc;
      }

      .cls-67 {
        fill: #e2d2ca;
      }

      .cls-68 {
        fill: #424773;
      }

      .cls-69 {
        fill: #3a3f47;
      }

      .cls-70 {
        fill: #323657;
      }

      .cls-71 {
        fill: #252840;
      }

      .cls-72 {
        fill: #eea987;
      }

      .cls-73 {
        fill: #e8734d;
      }

      .cls-74 {
        fill: #363a5e;
      }

      .cls-75 {
        fill: #313657;
      }

      .cls-76 {
        fill: #cfbeb8;
      }

      .cls-77 {
        fill: #494f80;
      }

      .cls-78 {
        fill: #707070;
      }

      .cls-79 {
        fill: #a1a1a1;
      }

      .cls-80 {
        fill: #fae6de;
      }

      .cls-81 {
        fill: #d6c5be;
      }

      .cls-82 {
        fill: #828282;
      }

      .cls-83 {
        fill: url(#linear-gradient-43);
      }

      .cls-84 {
        fill: url(#linear-gradient-44);
      }

      .cls-85 {
        fill: #fc5;
      }
    </style>
    <linearGradient id="linear-gradient" y1="306.54" x2="59.43" y2="306.54" gradientUnits="userSpaceOnUse">
      <stop offset="0" stop-color="#40d5e6"/>
      <stop offset="1" stop-color="#57f"/>
    </linearGradient>
    <linearGradient id="linear-gradient-2" x1="43.6" y1="339.7" x2="97.34" y2="339.7" xlink:href="#linear-gradient"/>
    <linearGradient id="linear-gradient-3" x1="48.19" y1="347.52" x2="88.53" y2="347.52" xlink:href="#linear-gradient"/>
    <linearGradient id="linear-gradient-4" x1="33.63" y1="315.05" x2="80.61" y2="315.05" xlink:href="#linear-gradient"/>
    <linearGradient id="linear-gradient-5" x1="22.84" y1="382.44" x2="66.2" y2="382.44" gradientUnits="userSpaceOnUse">
      <stop offset="0" stop-color="#ff9340"/>
      <stop offset="1" stop-color="#ffce45"/>
    </linearGradient>
    <linearGradient id="linear-gradient-6" x1="22.84" y1="382.44" x2="66.2" y2="382.44" gradientUnits="userSpaceOnUse">
      <stop offset="0" stop-color="#c97332"/>
      <stop offset="1" stop-color="#ffce45"/>
    </linearGradient>
    <linearGradient id="linear-gradient-7" x1="-11234.96" y1="-743.46" x2="-11276.72" y2="-743.46" gradientTransform="translate(906.01 -10946.42) rotate(-90)" gradientUnits="userSpaceOnUse">
      <stop offset="0" stop-color="#ff9f55"/>
      <stop offset="1" stop-color="#ffd255"/>
    </linearGradient>
    <linearGradient id="linear-gradient-8" x1="-10522.06" y1="-12184.38" x2="-10563.82" y2="-12184.38" gradientTransform="translate(-10137.65 -11874.95) rotate(180)" xlink:href="#linear-gradient-7"/>
    <linearGradient id="linear-gradient-9" x1="459.7" y1="214.85" x2="126.35" y2="214.85" gradientTransform="matrix(1, 0, 0, 1, 0, 0)" xlink:href="#linear-gradient-7"/>
    <linearGradient id="linear-gradient-10" x1="459.7" y1="163.79" x2="126.35" y2="163.79" gradientTransform="matrix(1, 0, 0, 1, 0, 0)" xlink:href="#linear-gradient-7"/>
    <linearGradient id="linear-gradient-11" x1="459.71" y1="175.46" x2="126.34" y2="175.46" gradientTransform="matrix(1, 0, 0, 1, 0, 0)" xlink:href="#linear-gradient-7"/>
    <linearGradient id="linear-gradient-12" x1="459.69" y1="163.79" x2="126.35" y2="163.79" gradientTransform="matrix(1, 0, 0, 1, 0, 0)" xlink:href="#linear-gradient-7"/>
    <linearGradient id="linear-gradient-13" x1="459.71" y1="103.81" x2="126.34" y2="103.81" gradientTransform="matrix(1, 0, 0, 1, 0, 0)" xlink:href="#linear-gradient-7"/>
    <linearGradient id="linear-gradient-14" x1="459.69" y1="93.26" x2="126.35" y2="93.26" gradientTransform="matrix(1, 0, 0, 1, 0, 0)" xlink:href="#linear-gradient-7"/>
    <linearGradient id="linear-gradient-15" x1="459.7" y1="175.46" x2="126.35" y2="175.46" gradientTransform="matrix(1, 0, 0, 1, 0, 0)" xlink:href="#linear-gradient-7"/>
    <linearGradient id="linear-gradient-16" x1="459.7" y1="195.54" x2="126.34" y2="195.54" gradientTransform="matrix(1, 0, 0, 1, 0, 0)" xlink:href="#linear-gradient-7"/>
    <linearGradient id="linear-gradient-17" x1="459.7" y1="163.79" x2="126.35" y2="163.79" gradientTransform="matrix(1, 0, 0, 1, 0, 0)" xlink:href="#linear-gradient-7"/>
    <linearGradient id="linear-gradient-18" x1="459.7" y1="152.12" x2="126.35" y2="152.12" gradientTransform="matrix(1, 0, 0, 1, 0, 0)" xlink:href="#linear-gradient-7"/>
    <linearGradient id="linear-gradient-19" x1="459.7" y1="222.79" x2="126.35" y2="222.79" gradientTransform="matrix(1, 0, 0, 1, 0, 0)" xlink:href="#linear-gradient-7"/>
    <linearGradient id="linear-gradient-20" x1="459.7" y1="289.25" x2="126.36" y2="289.25" gradientTransform="matrix(1, 0, 0, 1, 0, 0)" xlink:href="#linear-gradient-7"/>
    <linearGradient id="linear-gradient-21" x1="459.7" y1="285.09" x2="126.34" y2="285.09" gradientTransform="matrix(1, 0, 0, 1, 0, 0)" xlink:href="#linear-gradient-7"/>
    <linearGradient id="linear-gradient-22" x1="459.7" y1="267.11" x2="126.35" y2="267.11" gradientTransform="matrix(1, 0, 0, 1, 0, 0)" xlink:href="#linear-gradient-7"/>
    <linearGradient id="linear-gradient-23" x1="459.7" y1="300.91" x2="126.35" y2="300.91" gradientTransform="matrix(1, 0, 0, 1, 0, 0)" xlink:href="#linear-gradient-7"/>
    <linearGradient id="linear-gradient-24" x1="459.7" y1="295.21" x2="126.34" y2="295.21" gradientTransform="matrix(1, 0, 0, 1, 0, 0)" xlink:href="#linear-gradient-7"/>
    <linearGradient id="linear-gradient-25" x1="459.7" y1="300.91" x2="126.35" y2="300.91" gradientTransform="matrix(1, 0, 0, 1, 0, 0)" xlink:href="#linear-gradient-7"/>
    <linearGradient id="linear-gradient-26" x1="459.7" y1="197.64" x2="126.34" y2="197.64" gradientTransform="matrix(1, 0, 0, 1, 0, 0)" xlink:href="#linear-gradient-7"/>
    <linearGradient id="linear-gradient-27" x1="459.7" y1="185.98" x2="126.36" y2="185.98" gradientTransform="matrix(1, 0, 0, 1, 0, 0)" xlink:href="#linear-gradient-7"/>
    <linearGradient id="linear-gradient-28" x1="459.7" y1="162.64" x2="126.37" y2="162.64" gradientTransform="matrix(1, 0, 0, 1, 0, 0)" xlink:href="#linear-gradient-7"/>
    <linearGradient id="linear-gradient-29" x1="459.7" y1="193.15" x2="126.35" y2="193.15" gradientTransform="matrix(1, 0, 0, 1, 0, 0)" xlink:href="#linear-gradient-7"/>
    <linearGradient id="linear-gradient-30" x1="459.7" y1="210.65" x2="126.35" y2="210.65" gradientTransform="matrix(1, 0, 0, 1, 0, 0)" xlink:href="#linear-gradient-7"/>
    <linearGradient id="linear-gradient-31" x1="459.7" y1="222.31" x2="126.35" y2="222.31" gradientTransform="matrix(1, 0, 0, 1, 0, 0)" xlink:href="#linear-gradient-7"/>
    <linearGradient id="linear-gradient-32" x1="459.7" y1="261.61" x2="126.35" y2="261.61" gradientTransform="matrix(1, 0, 0, 1, 0, 0)" xlink:href="#linear-gradient-7"/>
    <linearGradient id="linear-gradient-33" x1="459.7" y1="255.78" x2="126.35" y2="255.78" gradientTransform="matrix(1, 0, 0, 1, 0, 0)" xlink:href="#linear-gradient-7"/>
    <linearGradient id="linear-gradient-34" x1="459.7" y1="277.58" x2="126.34" y2="277.58" gradientTransform="matrix(1, 0, 0, 1, 0, 0)" xlink:href="#linear-gradient-7"/>
    <linearGradient id="linear-gradient-35" x1="459.7" y1="221.87" x2="126.35" y2="221.87" gradientTransform="matrix(1, 0, 0, 1, 0, 0)" xlink:href="#linear-gradient-7"/>
    <linearGradient id="linear-gradient-36" x1="459.7" y1="267.11" x2="126.35" y2="267.11" gradientTransform="matrix(1, 0, 0, 1, 0, 0)" xlink:href="#linear-gradient-7"/>
    <linearGradient id="linear-gradient-37" x1="459.7" y1="106.65" x2="126.35" y2="106.65" gradientTransform="matrix(1, 0, 0, 1, 0, 0)" xlink:href="#linear-gradient-7"/>
    <linearGradient id="linear-gradient-38" x1="459.7" y1="106.65" x2="126.35" y2="106.65" gradientTransform="matrix(1, 0, 0, 1, 0, 0)" xlink:href="#linear-gradient-7"/>
    <linearGradient id="linear-gradient-39" x1="459.7" y1="123.58" x2="126.35" y2="123.58" gradientTransform="matrix(1, 0, 0, 1, 0, 0)" xlink:href="#linear-gradient-7"/>
    <linearGradient id="linear-gradient-40" x1="459.7" y1="106.65" x2="126.35" y2="106.65" gradientTransform="matrix(1, 0, 0, 1, 0, 0)" xlink:href="#linear-gradient-7"/>
    <linearGradient id="linear-gradient-41" x1="1225.54" y1="-11666.35" x2="1183.78" y2="-11666.35" gradientTransform="translate(-11261.07 -1138.83) rotate(90)" xlink:href="#linear-gradient-7"/>
    <linearGradient id="linear-gradient-42" x1="400.83" y1="276.13" x2="359.07" y2="276.13" gradientTransform="translate(-217.4 -210.3)" xlink:href="#linear-gradient-7"/>
    <linearGradient id="linear-gradient-43" x1="451.51" y1="96.93" x2="227.36" y2="96.93" gradientTransform="matrix(1, 0, 0, 1, 0, 0)" xlink:href="#linear-gradient-7"/>
    <linearGradient id="linear-gradient-44" x1="126.01" y1="155.06" x2="22.05" y2="155.06" gradientTransform="matrix(1, 0, 0, 1, 0, 0)" xlink:href="#linear-gradient-7"/>
  </defs>
  <title>Asset 1</title>
  <g class="cls-1">
    <g id="Layer_2" data-name="Layer 2">
      <g id="Слой_1" data-name="Слой 1">
        <g>
          <path class="cls-2" d="M5.19,228c5.13-2.45,10.23,13.87,10.23,13.87,8.71,11.5,20.88-3.81,19.69,13.4-2.08,30.11,34.66,9.47,17.71,40.9s15,17.77,4.43,43.12,3.12,55.57-12.73,43.15c0,0-14-30.6-28.34-40.07s8.62-20.7,4.11-33.56C13.75,290.13-2,290.87,9.36,270.8S-12.23,236.33,5.19,228Z"/>
          <path class="cls-3" d="M49.54,370.92c-6.87-4.83-14.91-38.5-15.39-58.55-.25-10.27-3.28-14.55-6-18.32-2.56-3.61-4.77-6.73-3.48-13.89,2.46-13.67-4-19.58-4.08-19.64l.75-.85c.29.25,7,6.34,4.44,20.69-1.2,6.69.78,9.49,3.3,13,2.63,3.71,5.91,8.34,6.17,19,.51,21.52,8.73,53.3,14.9,57.64Z"/>
          <path class="cls-4" d="M52.11,373.42a14.11,14.11,0,0,1-2.9-.32A6.32,6.32,0,0,1,44.05,369c-1.86-5.29,2.43-13.9,5.92-18a26.58,26.58,0,0,0,5.26-17.07c-.1-1.66-.27-3.19-.43-4.54-.43-3.91-.75-6.73.93-8.62,1.48-1.66,4.33-2.38,9.54-2.4,9.15,0,12.76-3.83,15.67-6.87a16.64,16.64,0,0,1,3.81-3.29h0c4.56-2.48,9.38-2.85,11.48-.87,1,.95,1.83,2.79.18,6.24a24,24,0,0,1-5,6.73c-2.11,2.15-3.51,3.58-2.78,6.41.17.67.37,1.34.56,2,1.41,4.82,3,10.29-5.24,14-1.75.78-3.35,1.41-4.75,2-5.76,2.26-9.24,3.63-13.16,11.91-.76,1.6-1.43,3.12-2.08,4.59C60.84,368.12,58.5,373.42,52.11,373.42Zm33.18-64.3a15.51,15.51,0,0,0-3.53,3.07c-3.05,3.2-6.85,7.18-16.48,7.23-4.79,0-7.48.64-8.7,2s-1,4.12-.65,7.73c.16,1.37.33,2.92.43,4.6a27.14,27.14,0,0,1-5.52,17.87c-3.45,4.1-7.35,12.27-5.72,16.94A5.26,5.26,0,0,0,49.43,372c7.77,1.57,9.91-3.29,13.47-11.35.65-1.47,1.32-3,2.09-4.62,4.12-8.69,8-10.19,13.77-12.48,1.4-.54,3-1.16,4.7-1.94,7.35-3.3,6-7.84,4.62-12.64-.2-.68-.4-1.37-.57-2-.89-3.46.86-5.24,3.07-7.49A23.12,23.12,0,0,0,95.39,313c.74-1.57,1.36-3.68,0-4.92-1.71-1.63-6.08-1.18-10.15,1Z"/>
          <path class="cls-5" d="M49.33,380l-1.14-.06c.06-1.07,1.49-26.19,11.58-33.55,11.07-8.06,14.56-16.73,16.22-22.55,2-6.86,11.92-8.69,12.35-8.77l.19,1.12c-.09,0-9.69,1.79-11.45,8-1.71,6-5.29,14.89-16.64,23.16C50.78,354.33,49.34,379.72,49.33,380Z"/>
          <path class="cls-6" d="M72.39,253.36c-7.17-2.46-5.68,11.36-8.71,21.58S30,279.4,42.85,305s-16.28,8.56-7.57,30.91S36,382.16,45.5,376.08s5.32-34.22,15.17-37.56,11.45-7.24,1.7-16.33,25.55-18.11,16.84-36.47S80.68,256.2,72.39,253.36Z"/>
          <path class="cls-3" d="M49.9,375c-.9-3.83-8.6-37.49-1.42-41.56,6.33-3.58,6.18-17.53,5.19-30.7-.88-11.66,14.1-17.11,14.74-17.34l.38,1.07c-.15,0-14.8,5.39-14,16.18,1,13.53,1.13,27.88-5.76,31.78-5.46,3.09-.43,30.14,2,40.31Z"/>
          <polygon class="cls-7" points="66.2 363.02 55.96 401.86 33.08 401.86 22.84 363.02 66.2 363.02"/>
          <path class="cls-8" d="M66.2,363s-22.54,4.23-22.54,38.84H33.08L22.84,363Z"/>
        </g>
        <polygon class="cls-9" points="141.67 288.54 145.56 288.54 145.56 326.42 183.43 326.42 183.43 330.31 141.67 330.31 141.67 288.54"/>
        <polygon class="cls-10" points="384.41 330.31 384.41 326.42 422.28 326.42 422.28 288.54 426.17 288.54 426.17 330.31 384.41 330.31"/>
        <g>
          <polygon class="cls-11" points="280.55 181.29 275.77 181.29 209.22 181.29 209.22 181.29 209.22 169.62 209.22 157.96 197.56 157.96 197.56 169.62 185.89 169.62 185.89 181.29 197.56 181.29 197.56 181.29 185.89 181.29 185.89 192.96 185.89 204.62 185.89 216.29 185.89 216.29 197.56 216.29 197.56 216.29 209.8 216.29 209.8 204.62 197.56 204.62 197.56 192.96 209.22 192.96 275.77 192.96 275.77 271.75 287.44 271.75 287.44 181.29 280.55 181.29"/>
          <rect class="cls-12" x="162.55" y="157.96" width="23.33" height="11.67"/>
          <rect class="cls-13" x="252.44" y="169.62" width="23.33" height="11.66"/>
          <rect class="cls-14" x="229.11" y="157.96" width="23.33" height="11.67"/>
          <rect class="cls-15" x="252.44" y="93.38" width="11.67" height="20.85"/>
          <rect class="cls-16" x="274.5" y="81.46" width="11.67" height="23.59"/>
          <rect class="cls-17" x="287.44" y="169.62" width="11.67" height="11.66"/>
          <rect class="cls-18" x="310.58" y="180.14" width="11.67" height="30.79"/>
          <rect class="cls-19" x="275.77" y="157.96" width="11.67" height="11.67"/>
          <polygon class="cls-20" points="310.77 157.96 310.77 146.29 299.11 146.29 287.44 146.29 287.44 157.96 299.11 157.96 310.77 157.96"/>
          <polygon class="cls-21" points="333.14 216.29 310.58 216.29 310.58 210.93 298.91 210.93 298.91 242.11 310.58 242.11 310.58 227.96 321.61 227.96 321.61 239.62 333.27 239.62 333.27 228.14 344.81 228.14 344.81 203.47 333.14 203.47 333.14 216.29"/>
          <rect class="cls-22" x="356.48" y="283.41" width="11.66" height="11.66"/>
          <polygon class="cls-23" points="263.68 261.76 252.01 261.76 252.01 271.75 252.01 283.41 252.01 308.42 263.68 308.42 263.68 283.41 275.77 283.41 275.77 271.75 263.68 271.75 263.68 261.76"/>
          <path class="cls-24" d="M230.41,227.48H162.9v79.26h79.27V295.08h-.1V239.14h.1V227.48H230.41Zm0,67.6H174.57V239.14h55.84Z"/>
          <rect class="cls-25" x="368.14" y="295.08" width="23.33" height="11.67"/>
          <polygon class="cls-26" points="323.77 295.21 323.77 306.87 335.44 306.87 335.44 295.21 335.44 283.54 323.77 283.54 323.77 295.21"/>
          <rect class="cls-27" x="275.77" y="295.08" width="37.1" height="11.67"/>
          <rect class="cls-28" x="344.81" y="191.81" width="11.67" height="11.66"/>
          <rect class="cls-29" x="356.48" y="180.14" width="11.66" height="11.67"/>
          <rect class="cls-30" x="365.66" y="156.81" width="23.81" height="11.67"/>
          <polygon class="cls-31" points="400.65 204.81 400.65 193.15 400.65 181.48 388.99 181.48 388.99 193.15 377.32 193.15 377.32 204.81 388.99 204.81 400.65 204.81"/>
          <rect class="cls-32" x="365.66" y="204.81" width="11.67" height="11.67"/>
          <rect class="cls-33" x="377.32" y="216.48" width="11.67" height="11.67"/>
          <polygon class="cls-34" points="388.99 263.14 388.99 283.41 400.65 283.41 400.65 249.12 388.99 249.12 388.99 239.81 377.32 239.81 377.32 263.14 388.99 263.14"/>
          <polygon class="cls-35" points="344.81 260.08 312.88 260.08 312.88 271.75 344.81 271.75 344.81 283.41 356.48 283.41 356.48 271.75 356.48 239.81 377.32 239.81 377.32 228.14 344.81 228.14 344.81 239.81 344.81 260.08"/>
          <rect class="cls-36" x="287.44" y="271.75" width="25.44" height="11.67"/>
          <polygon class="cls-37" points="239.83 204.11 239.83 216.29 252.01 216.29 252.01 239.62 263.68 239.62 263.68 216.29 252.01 216.29 252.01 204.11 239.83 204.11"/>
          <rect class="cls-38" x="185.08" y="249.66" width="34.9" height="34.9"/>
          <path class="cls-39" d="M230.41,146.28h11.76V134.62h-.1V78.68h.1V67H162.9v79.26h67.51Zm-55.84-67.6h55.84v55.94H174.57Z"/>
          <rect class="cls-40" x="185.08" y="89.2" width="34.9" height="34.9"/>
          <path class="cls-41" d="M401.94,78.68V67H322.68V93.38H297.25v11.67H286.16v18.36H275.77v-9.18H264.11v9.18H252.44V158h11.67V135.07h33.72v-30h24.85v41.23h22.13v22.2H322.34v11.66h34.14V146.28h45.46V134.62h-.09V78.68Zm-11.76,55.94H334.34V78.68h55.84Z"/>
          <rect class="cls-42" x="344.86" y="89.2" width="34.9" height="34.9"/>
        </g>
        <polygon class="cls-43" points="311.49 13.87 310.07 13.87 314.41 5.09 315.83 5.09 311.49 13.87"/>
        <rect class="cls-43" x="265.71" y="13.07" width="68.89" height="1.09"/>
        <rect class="cls-43" x="265.71" y="16.61" width="36.8" height="6.32"/>
        <rect class="cls-43" x="310.07" y="1.62" width="19.17" height="3.47"/>
        <rect class="cls-43" x="310.07" width="19.17" height="0.65"/>
        <rect class="cls-44" x="42.07" y="162.55" width="197.97" height="193.02"/>
        <polygon class="cls-45" points="426.17 86.71 422.28 86.71 422.28 48.84 384.41 48.84 384.41 44.95 426.17 44.95 426.17 86.71"/>
        <polygon class="cls-46" points="183.43 44.95 183.43 48.84 145.56 48.84 145.56 86.71 141.67 86.71 141.67 44.95 183.43 44.95"/>
        <g>
          <rect class="cls-47" x="57.71" y="259.5" width="0.98" height="81.1"/>
          <rect class="cls-47" x="89.74" y="259.5" width="0.98" height="81.1"/>
          <rect class="cls-47" x="121.77" y="259.5" width="0.98" height="81.1"/>
          <rect class="cls-47" x="153.79" y="259.5" width="0.98" height="81.1"/>
          <rect class="cls-47" x="185.82" y="259.5" width="0.98" height="81.1"/>
          <rect class="cls-47" x="217.84" y="259.5" width="0.98" height="81.1"/>
        </g>
        <path class="cls-48" d="M69.35,340.6s14.24-52.07,32.92-46.55,12.7,29.53,28.09,29.53c12.94,0,12.94-40.56,29.48-40.1s15.08,30.47,33.57,11.18,15.43-21.58,24.93-21.58V340.6Z"/>
        <path class="cls-49" d="M58.21,340.6S65.82,308.44,79.3,313s5.35,22.67,20.28,22.67,11.88-38.09,28.72-35.43,7.26,24.4,19.25,25,12.88-48.77,40.76-46.74,30,62.06,30,62.06Z"/>
        <g>
          <path class="cls-50" d="M429.43,291.92a25.16,25.16,0,0,0-2.92-.18c-.94.06-5.08,2.38-6.48,2.31s-10.73-3.11-11.16-3.36.12-.91.12-.91l20.64-2Z"/>
          <path class="cls-50" d="M415.77,288a12.34,12.34,0,0,0-3.34,2c-.23.25-.41.52-.27.83s.76.5,1.78.13a9,9,0,0,1,2.51-.37S417.38,289.94,415.77,288Z"/>
          <path class="cls-51" d="M446,258.64l2.13,21.75s.93,2.69-5.16,3.67-15.93,3.13-15.93,3.13.16,7.25,1,7.29c2.37.13,20-2.86,27-4.34,5.54-1.17,2.07-30.81,2.07-30.81Z"/>
          <path class="cls-50" d="M429.13,284.61a25.4,25.4,0,0,1-2.86.61c-.94.09-5.38-1.6-6.75-1.33s-10.15,4.68-10.54,5,.25.88.25.88L430,288.7Z"/>
          <path class="cls-52" d="M452,399.58s-4.29,2.61-6.24,3.59-9.56,1.34-10.3,2.06-.44,3,.82,3.21,10.53.94,13.6.19,8.87.38,10.14-.07.37-7.33-.14-8.87S452,399.58,452,399.58Z"/>
          <path class="cls-53" d="M451.63,396.77l.39,2.81s5.8,1,7.54.1l-.47-2.92Z"/>
          <path class="cls-52" d="M440.19,298.18c-.16,1.94-.29,6.19-.39,10.65,0,1,0,2-.05,3-.12,6-.17,11.58-.17,11.58.28,7.56,1.48,23.91,3.73,27.59,3,5,6.56,46.23,6.56,46.23L461,398.41s.69-27.58-1-34.79c-1.86-8.05-5.43-19-3.39-26.33,1.28-4.6,3.95-19.38,3.95-19.38s2.86-16.63-.1-29.39C459.77,285.33,440.19,298.18,440.19,298.18Z"/>
          <path class="cls-52" d="M432.86,399.58s-4.3,2.61-6.24,3.59-9.56,1.34-10.3,2.06-.44,3,.82,3.21,10.53.94,13.6.19,8.87.38,10.14-.07.37-7.33-.15-8.87S432.86,399.58,432.86,399.58Z"/>
          <path class="cls-53" d="M432.46,396.77l.4,2.81s5.79,1,7.54.1l-.47-2.92Z"/>
          <path class="cls-52" d="M430.07,398.05H441.5s3.85-22.12,4.16-31.86h0a23.23,23.23,0,0,0,0-2.7c-.17-2.06-.41-4.33-.64-6.67a.07.07,0,0,0,0-.05c-.67-7-1.17-14.64,1.15-19.83,1.94-4.35,6.74-18.59,6.74-18.59s5.26-16,4.19-29.08c-.26-3.27-20.59,4.93-20.59,4.93a121.34,121.34,0,0,0-2.28,12.33c-2.75,25.35-1.72,41.87-1.72,41.87C434,354,430.07,398.05,430.07,398.05Z"/>
          <path class="cls-54" d="M438.25,240.14s-4,9.43-4.79,14.49,2.53,18.88,2.68,21.74c.47,8.87.69,18.68.69,18.68l19.36,8.63a176.67,176.67,0,0,0,3.44-17.53,78.39,78.39,0,0,0-.51-23.52c-2.69-17.39-13.58-25.8-13.58-25.8Z"/>
          <path class="cls-50" d="M423.56,223.16s-1.34,5.2.06,5.61c1.16.34.07,5.38,0,6.19s2.15.81,2.72,1.18,3.33,5.85,5.13,5.6,9-4.94,10.58-7.7.88-13.26-1.6-17.16S426,214.08,423.56,223.16Z"/>
          <path class="cls-50" d="M434.49,236s.13.51.34,1.3l.27,1.12c.08.31.16.64.24,1l.09.38c.13.57.26,1.17.38,1.76a19.2,19.2,0,0,1,.5,3.86c-.1,2.32,8.17-8.64,8.17-8.64a111.65,111.65,0,0,1-2.77-15.6C440.86,212.77,434.49,236,434.49,236Z"/>
          <path class="cls-55" d="M423.31,224.28a7.27,7.27,0,0,1-.06-9.14c3.68-4.8,13.72-.44,14.74-.43s6.41-1,6.12,9.22c-.26,9.06-.7,8.66-.7,8.66s-2.79-3.79-4-4.27c-1.83-.74-5.16.36-5.16.36s.56-4.69-2.11-4.68S425.64,222.7,423.31,224.28Z"/>
          <path class="cls-50" d="M436.38,225.56c.08-.64.18-3.35,2.72-2.4s.18,6.59-.18,6.75S435.73,231,436.38,225.56Z"/>
          <path class="cls-56" d="M435.59,298.2s.89-4.18,1.06-4.81l26.13,4.35-.27,3.38S443.69,300,435.59,298.2Z"/>
          <path class="cls-57" d="M462.86,277.29A82.58,82.58,0,0,0,470.7,315c1.13,2.38-17.3,2.26-17.3,2.26Z"/>
          <path class="cls-57" d="M435.94,261.12q.51,3,.89,6.06h0c.51,4,.86,8.09,1.08,12.05,0,.41,0,.82.07,1.23l.09,2q.06,1.32.09,2.61a89.93,89.93,0,0,0,7.18,32.14s13.21.91,16.6-.94a272.17,272.17,0,0,0,1.3-40.26c-.09-1.55-.19-3.09-.32-4.62h0c-1.34-16.21-7.73-31.88-17.43-34.53C445.26,237,434.14,250.58,435.94,261.12Z"/>
          <rect class="cls-58" x="393.18" y="289.28" width="34.5" height="3.16" transform="translate(832.28 564.91) rotate(177.69)"/>
          <rect class="cls-58" x="371.65" y="274.79" width="34.5" height="3.16" transform="translate(260.23 735.79) rotate(-109.75)"/>
          <path class="cls-59" d="M440.4,346.46c1,6.29,5.17,19.43,5.26,19.73a23.23,23.23,0,0,0,0-2.7c-.17-2.06-.41-4.33-.64-6.67a.07.07,0,0,0,0-.05c-.21-2-1.68-5.8-2.65-8.35s-1.93-12.79-1.93-12.79A32.1,32.1,0,0,0,440.4,346.46Z"/>
          <path class="cls-60" d="M435.43,239.74c.13.57.26,1.17.38,1.76,2.43-1.67,5.23-6.11,5.4-6.39C440.22,236.55,435.5,239.69,435.43,239.74Z"/>
          <path class="cls-61" d="M438,278.2l.06,1.21c0,.65.07,1.29.1,1.93,3-.6,8.59-2.11,10.28-5.11,2.31-4.1-3.45-13.66-3.57-13.86,0,.25,2.46,12,0,13.19C443.25,276.32,439.93,277.36,438,278.2Z"/>
          <path class="cls-51" d="M436,248.18a71.56,71.56,0,0,0-.25,22.07c1.49,10.05,2.06,17.27,2.06,17.27l-.74,2.84-1.36-2.18s-2.33-12.88-2.77-18.23-.9-12.66,2.23-21.83Z"/>
          <path class="cls-51" d="M436.12,248.19a1.44,1.44,0,0,1-.65.44c-.4.12-1.09-.45.59-3.53Z"/>
          <path class="cls-62" d="M444.2,235.57s-5.11,6.49-8.46,8.25l.13,5.47,9.67-12.46Z"/>
          <path class="cls-57" d="M455.27,253.38c-.39-2.48-3.29-13-9.25-11.48s-4.28,8.73-3,14.14c1.36,5.66,6.23,19.33,5.38,20.19s-7.75,4-9.25,4.49-11.07,3.56-11.81,3.88,3.7,8.13,3.7,8.13S454.9,284.6,458.94,282,455.27,253.38,455.27,253.38Z"/>
        </g>
        <g>
          <path class="cls-63" d="M139.64,205.18a42,42,0,0,0-40.74-27.8A41.43,41.43,0,0,0,86,179.82a41.91,41.91,0,0,0-25.36,53.6c.31.89.66,1.77,1,2.62a41.94,41.94,0,0,0,77.94-30.86Zm-28.9,43.73a31.43,31.43,0,0,1-39.42-17.06c-.27-.64-.53-1.29-.77-2a31.44,31.44,0,1,1,40.19,19Z"/>
          <path class="cls-64" d="M70.14,209.93l-10-3.13a41.86,41.86,0,0,1,25.91-27,41.43,41.43,0,0,1,12.87-2.44l.31,10.49a31.49,31.49,0,0,0-29.07,22.06Z"/>
          <path class="cls-65" d="M71.32,231.85,61.7,236c-.37-.85-.72-1.73-1-2.62a41.7,41.7,0,0,1-.55-26.62l10,3.13a31.34,31.34,0,0,0,.41,20C70.79,230.56,71.05,231.21,71.32,231.85Z"/>
          <path class="cls-66" d="M68.2,246.48A41.7,41.7,0,0,1,61.7,236l9.62-4.19a31.48,31.48,0,0,0,4.88,7.83Z"/>
        </g>
        <g>
          <rect class="cls-63" x="158.54" y="177.36" width="18.49" height="5.57" rx="1.01"/>
          <rect class="cls-47" x="158.54" y="190.72" width="18.49" height="5.57" rx="1.01"/>
          <rect class="cls-47" x="158.54" y="204.08" width="18.49" height="5.57" rx="1.01"/>
          <rect class="cls-47" x="158.54" y="217.44" width="18.49" height="5.57" rx="1.01"/>
          <rect class="cls-47" x="158.54" y="230.8" width="18.49" height="5.57" rx="1.01"/>
          <rect class="cls-47" x="158.54" y="244.16" width="18.49" height="5.57" rx="1.01"/>
        </g>
        <g>
          <rect class="cls-63" x="184.66" y="177.36" width="34.17" height="5.57" rx="0.91"/>
          <rect class="cls-47" x="184.66" y="190.72" width="34.17" height="5.57" rx="0.91"/>
          <rect class="cls-47" x="184.66" y="204.08" width="34.17" height="5.57" rx="0.91"/>
          <rect class="cls-47" x="184.66" y="217.44" width="34.17" height="5.57" rx="0.91"/>
          <rect class="cls-47" x="184.66" y="230.8" width="34.17" height="5.57" rx="0.91"/>
          <rect class="cls-47" x="184.66" y="244.16" width="34.17" height="5.57" rx="0.91"/>
        </g>
        <g>
          <polygon class="cls-52" points="130.19 260.69 148.02 270.49 165.93 242.31 144.27 234.79 130.19 260.69"/>
          <polygon class="cls-67" points="131.32 259.84 148 269.01 164.75 242.66 144.49 235.62 131.32 259.84"/>
          <path class="cls-50" d="M125.21,254.92s3.11-1.49,4.47-2.26,4.87-1.85,5.15-2.1,10.39-.88,11-1.4,1.21,1.24-1.41,1.81-6.26,2-6.46,3,2.69,1.27,3,2.11-.08.65-.49.83-3.44-1.49-4.77-1-3.36-.19-4.38.16l-6,2Z"/>
          <path class="cls-50" d="M148.89,267s2.61-2.35,3.87-3.33,3.63-3.87,4-4,4.87-9.45,5.61-9.82-.7-1.62-2.26.62-4.3,5.14-5.34,4.93-.15-3-.83-3.64-.65-.17-1,.15.07,3.82-.9,4.88-1.13,3.24-1.86,4.07L146,265.62Z"/>
          <path class="cls-68" d="M92.74,392.4s-.57,3.91-.64,4.5-6.27-.35-6.27-.35l-.51-4.66S92,391.85,92.74,392.4Z"/>
          <path class="cls-52" d="M92.17,396.4A16.71,16.71,0,0,0,96,399.79c1.91,1,4.89,1.44,6,2.5.81.77,3,4.08-4.94,4s-11.71.47-12.55-.8,1.22-9.36,1.22-9.36S87.65,396.81,92.17,396.4Z"/>
          <path class="cls-68" d="M137.19,392.4s-.56,3.91-.63,4.5-6.28-.35-6.28-.35l-.5-4.66S136.42,391.85,137.19,392.4Z"/>
          <path class="cls-52" d="M136.62,396.4a16.85,16.85,0,0,0,3.87,3.39c1.9,1,8.9,1.87,10,2.94.81.77,2.16,3.86-8.95,3.57-7.89-.21-11.7.47-12.55-.8s1.23-9.36,1.23-9.36S132,396.86,136.62,396.4Z"/>
          <path class="cls-52" d="M97.87,291.8s-5.83,9.26-5.39,17.63-2.11,17.51-3,26.26c-1,9.75-5,32.83-5.12,38.05s.62,21.87.62,21.87l8,.18s6.72-40.35,8.46-44.47,10.36-33.47,10.65-36.77S97.87,291.8,97.87,291.8Z"/>
          <path class="cls-52" d="M128.56,293.05s4.4,22.95,5,28.07,1,24.8,1.25,28,1.94,41.91,3.48,46.67H128.05s-7.85-28.14-7.85-41.45-6.07-28.95-10-37.73-12.87-9-15.28-25.29C94.94,291.32,125.3,287.88,128.56,293.05Z"/>
          <path class="cls-50" d="M107.6,213.92s7.83-2.92,11.43,3,3.26,17.88-.68,19.35-9.87.69-11.89-3-3.84-9.12-3.75-12.72S105.55,215,107.6,213.92Z"/>
          <path class="cls-50" d="M117.5,236.58a6.86,6.86,0,0,0,.21,3.15c.54,1-10.13,1.07-10.13,1.07a70.71,70.71,0,0,0-2.51-10.44C103.42,225.57,117.5,236.58,117.5,236.58Z"/>
          <path class="cls-69" d="M105.07,230.36s.73,1.21,3.74.74,6.68-4.47,7.93-4.91S118,225,118,225l.79,1.15,1.33.08s-1.22-3.58.62-5-1.9-11.58-11.55-8.21c0,0-7.41,2-7.14,6.25S103.41,228.26,105.07,230.36Z"/>
          <path class="cls-67" d="M118.35,239.61s0-2-.94-2.18-10-1.06-11-.63v2.32S108.49,240.43,118.35,239.61Z"/>
          <path class="cls-50" d="M117.81,223.48c-.17-.71-2-2.73-2.65-.57s1,5.08,2,4.83S118.24,225.27,117.81,223.48Z"/>
          <path class="cls-70" d="M154.25,263.1h0C154.3,263.13,154.31,263.13,154.25,263.1Z"/>
          <path class="cls-70" d="M91.3,313.86a82.94,82.94,0,0,0,13,2.31c8.18.91,28.63-.32,28.76-1.29s-4.4-36-4.14-37.8.39-8.23.39-8.23a45.55,45.55,0,0,0,4.06,12.88c.79,1.41,3.41,5.85,4.68,4.84,6.12-4.89,15.61-23.32,16.21-23.47-.51-.22-4.5-2.06-5.06-2.24s-4.91,4.51-7.58,7.41c-1.2,1.29-2,2.23-2,2.23-.78-1.74-3.59-12.7-4.47-16.49-2-8.55-1.67-8.91-1.67-8.91-6-1.81-15.07-5.49-15.07-5.49l-12-.49s-11,2.42-15.34,4.38c-.41.18-.41,9.81-1.54,12.34l3.59,7.58s2.08,15,2.51,21.69C95.78,288.18,91.3,313.86,91.3,313.86Z"/>
          <path class="cls-70" d="M89,268.34c.31,1,1.74,1.87,2.66,2.24a3.46,3.46,0,0,0,1.92.2l.47-.09h0l8.21-1.53S104,248.46,91,243.5C90.68,243.61,86.1,259.07,89,268.34Z"/>
          <path class="cls-71" d="M91.64,270.58h0a3.46,3.46,0,0,0,1.92.2l.47-.09h0l-.81-10.58Z"/>
          <path class="cls-71" d="M139.56,270.5l1,4.26a33.8,33.8,0,0,0,1-6.49C140.4,269.56,139.56,270.5,139.56,270.5Z"/>
          <path class="cls-69" d="M105.37,214.63s-10.25-1.19-.17,15.94Z"/>
          <polygon class="cls-52" points="157.69 240.8 158.73 239.01 150.52 236.18 149.48 237.96 157.69 240.8"/>
        </g>
        <g>
          <g>
            <path class="cls-72" d="M261.62,257s1.62-1.5,1.3-2.63a4.92,4.92,0,0,1,.24-2.48c.14-.6.2-2.51.64-2.41.75.18.57,3.24.67,3.9s2.06-1.53,2.74-1.65,4.11,3.36,2.58,4.71-3.64,1.88-3.86,2.17a13,13,0,0,1-1.27,1.09Z"/>
            <path class="cls-72" d="M266.78,252s5-3.8,5.5-3.78.73.31.28.68-4.68,3.81-4.68,3.81,6.62-3.51,7.07-3.59c.26,0,.46.46.24.68s-6.39,4.1-6.39,4.1,6.19-3.27,6.59-3.22a.49.49,0,0,1,.15.89l-6,3.63s4.65-2.1,5-1.86.45.46-.76,1a42.47,42.47,0,0,0-3.87,2.11Z"/>
          </g>
          <path class="cls-73" d="M227.19,211.19s11.86-1,11.53,11.49-2.3,14.35,0,23.16-11.56-5-11.56-5Z"/>
          <path class="cls-74" d="M191.08,397.85s-4.41,6.19-3.8,7.17,5.23,1.12,8.05,0,2.88-8.37,4.16-11.49c.53-1.3-.61-5.15-2.22-5.43a6.52,6.52,0,0,0-3.35.54S195.59,393,191.08,397.85Z"/>
          <path class="cls-50" d="M193.89,388.59a30.79,30.79,0,0,0-1.26,5.15c-.28,2.09-3.14,6.51-3,7.07s3.75,1.07,5.23-.37,2.42-5.65,2.75-8.16a20.79,20.79,0,0,1,.68-3.49S195.3,387.05,193.89,388.59Z"/>
          <path class="cls-74" d="M229.39,398s-4.24,6.09-3.64,7.07,5.24,1.12,8.06,0,2.88-8.37,4.16-11.49c.53-1.3-.61-5.15-2.22-5.43a7,7,0,0,0-3.49.6S233.91,393.13,229.39,398Z"/>
          <path class="cls-50" d="M232.26,388.7a42.09,42.09,0,0,1-.87,4.9c-.54,2-3.42,6.65-3.29,7.21s3.76,1.07,5.24-.37,2.61-5.63,2.75-8.16a14.08,14.08,0,0,0-.34-4.18A3.17,3.17,0,0,0,232.26,388.7Z"/>
          <path class="cls-75" d="M211.06,288s-3.78,18.34-4.65,23-3.3,27-3.56,30.78-3.94,18.14-3.76,19.49-6,28.28-6,28.28,4.36.47,6.09-.26c1.19-.5,10.74-24.77,10.74-31.56,0-9.39,5.24-21.64,6-23.78,7.48-21,8.85-26,9.89-27.28,0,0,.16,1.71.51,4.56.41,3.28,2.19,26.68,3,29.76s.17,13.49.6,18.74,1.24,29.2,1.24,29.2,3.92.17,5.64-.86c.58-.34,2.58-25.73,2.67-32s.18-14.86.34-17.56c1.61-25.89,5.56-29.59-.66-47.91C227.5,256.29,211.06,288,211.06,288Z"/>
          <polygon class="cls-74" points="199.61 392.99 199.61 399.46 198.8 399.46 198.8 394.46 199.61 392.99"/>
          <polygon class="cls-74" points="238.08 392.99 238.08 399.46 237.28 399.46 237.28 394.46 238.08 392.99"/>
          <path class="cls-50" d="M222.26,244.38a48.58,48.58,0,0,0,1.81-5.2c0-.13.07-.26.11-.39.09-.36.18-.72.25-1.08s.09-.41.12-.61a8.51,8.51,0,0,0,0-4c-1.15-3.4,7.21-1,7.21-1s-1.62,9,0,12S222.26,244.38,222.26,244.38Z"/>
          <path class="cls-62" d="M236.43,244.23c.93-1.16-5.61-1.57-5.61-1.57l-7.64-.66a68.55,68.55,0,0,0-9.32,2.29c-4.08,1.41-9.41,9.13-9.41,9.13s7.36,17.28,8.77,22.24-1.6,17.59-1.6,17.59c8.83,4.81,26.26.51,26.26.51S230.93,251.12,236.43,244.23Z"/>
          <path class="cls-76" d="M239.55,265.07a36.76,36.76,0,0,0-1.29,3.58,57.21,57.21,0,0,1-.46-12.19A30.26,30.26,0,0,0,239.55,265.07Z"/>
          <path class="cls-50" d="M231.24,242.39l-9,7.33.92-7.72S228.42,240.87,231.24,242.39Z"/>
          <path class="cls-77" d="M237.17,273.26c-1.23,5.13,5,21.17,5,21.17L231.64,298a2.25,2.25,0,0,1-2.94-1.73c-1.19-6.68-4.28-24.57-4.63-32.51-.43-9.85,6.75-21.48,6.75-21.48,12.75,2.19,9.25,21.48,9.25,21.48s-.46,1.22-1.08,3.12h0c-.15.48-.32,1-.49,1.55C238.06,269.86,237.59,271.52,237.17,273.26Z"/>
          <path class="cls-77" d="M222.28,242.42l.16-.42s-6.54,1-9.86,2.65-9.67,10.23-9.67,10.23l8.31,11c0,8.43-2.93,28.22-2.93,28.22l5.77,2.36a1.38,1.38,0,0,0,1.91-1.25c.09-6,.37-23.86.51-30.82.18-8.44,6.19-22.08,6.19-22.08Z"/>
          <path class="cls-50" d="M210.44,282a72.1,72.1,0,0,0,7.24,0c1-.25,7.48-3.07,7.87-5.85s-15.11,2.49-15.11,2.49Z"/>
          <polygon class="cls-78" points="229.88 273.26 204.45 270.28 215.94 279.63 229.88 273.26"/>
          <polygon class="cls-79" points="215.94 279.63 229.88 274.88 229.88 273.26 215.47 277.89 215.94 279.63"/>
          <polygon class="cls-80" points="223.65 240.58 218.82 248.25 216.48 249.72 221.93 242.08 223.65 240.58"/>
          <polygon class="cls-81" points="218.82 248.25 222.26 249.72 223.18 242 223.65 240.58 218.82 248.25"/>
          <path class="cls-77" d="M211.2,278.38a19.42,19.42,0,0,0,0,3.92s-15.68-1.57-17.15-3.76a9.5,9.5,0,0,1-1.41-4.86Z"/>
          <polygon class="cls-79" points="215.94 279.63 208.52 252.06 180.32 249.08 188.05 274.46 215.94 279.63"/>
          <path class="cls-77" d="M252.49,263.87c1.42-1.17,2.25-1.6,3.95-3.06,2.66-2.29,6.05-5.18,6.05-5.18l3.22,4.73s-7.8,6.86-11.94,10.92h0s-5.24,5.63-6.41,5.13S242,269.86,238.67,264s-4.84-9.54-5-12.08,8.23-3.76,8.23-3.76l6.57,14.36a20.81,20.81,0,0,0,1.77,2.68S251.72,264.39,252.49,263.87Z"/>
          <path class="cls-50" d="M228.35,212.46a10.07,10.07,0,0,0-11.57,8,25.11,25.11,0,0,0,.32,3.86c.32,1.71-1.72,6.43-1.36,6.72a11.32,11.32,0,0,0,1.93.78s1.11,5.54,3,5.71,9.15-.49,13.25-6.75S240.22,214.4,228.35,212.46Z"/>
          <path class="cls-73" d="M216.78,220.43s4.42,3.82,9.11,5,7.17,6.47,7.17,6.47,8.29-8.27,3.28-16.29S216.79,211.18,216.78,220.43Z"/>
          <path class="cls-73" d="M226.75,225.73s4.91,12.87,4.33,16c0,0,2.43-.42,6.94,1C238,242.66,235.84,219.67,226.75,225.73Z"/>
          <polygon class="cls-81" points="224.85 248.47 222.26 249.72 231.08 240.97 224.85 248.47"/>
          <polygon class="cls-80" points="231.08 240.97 224.85 248.47 228.26 251.51 231.94 242.53 231.08 240.97"/>
          <path class="cls-60" d="M229.37,235.14c0,.06-1.39,2.16-5.19,3.65.09-.36.18-.72.25-1.08s.09-.41.12-.61A17.6,17.6,0,0,0,229.37,235.14Z"/>
          <path class="cls-82" d="M199,263.59c.78,1.47.77,3,0,3.44s-2.09-.43-2.87-1.9-.77-3,0-3.45S198.23,262.11,199,263.59Z"/>
          <path class="cls-77" d="M231.94,242.53A9.77,9.77,0,0,1,242.55,250S232.1,248.89,231.94,242.53Z"/>
        </g>
        <polygon class="cls-83" points="451.51 169.62 449.92 169.62 449.92 25.83 345.89 25.83 345.89 41.67 227.37 41.67 227.37 40.09 344.31 40.09 344.31 24.25 451.51 24.25 451.51 169.62"/>
        <polygon class="cls-84" points="23.64 203.47 22.05 203.47 22.05 145.49 124.42 145.49 124.42 106.65 126.01 106.65 126.01 147.08 23.64 147.08 23.64 203.47"/>
        <rect class="cls-85" x="68.98" y="114.29" width="30.83" height="2.16"/>
        <rect class="cls-85" x="68.98" y="118.36" width="30.83" height="9.09"/>
        <rect class="cls-85" x="96.11" y="130.5" width="18.19" height="1.36"/>
        <rect class="cls-85" x="96.11" y="132.46" width="18.19" height="3.68"/>
        <rect class="cls-85" x="99.13" y="101.99" width="1.36" height="25.46"/>
      </g>
    </g>
  </g>
</svg>
