<svg xmlns="http://www.w3.org/2000/svg" xmlns:xlink="http://www.w3.org/1999/xlink" viewBox="0 0 470.75 408.96">
  <defs>
    <style>
      .cls-1 {
        isolation: isolate;
      }

      .cls-2 {
        fill: url(#linear-gradient);
      }

      .cls-3 {
        fill: #fff;
      }

      .cls-4 {
        fill: url(#linear-gradient-2);
      }

      .cls-5 {
        fill: url(#linear-gradient-3);
      }

      .cls-6 {
        fill: url(#linear-gradient-4);
      }

      .cls-7 {
        fill: url(#linear-gradient-5);
      }

      .cls-8 {
        fill: url(#linear-gradient-6);
      }

      .cls-9 {
        fill: url(#linear-gradient-7);
      }

      .cls-10 {
        fill: url(#linear-gradient-8);
      }

      .cls-11 {
        fill: url(#linear-gradient-9);
      }

      .cls-12 {
        fill: url(#linear-gradient-10);
      }

      .cls-13 {
        fill: url(#linear-gradient-11);
      }

      .cls-14 {
        fill: url(#linear-gradient-12);
      }

      .cls-15 {
        fill: url(#linear-gradient-13);
      }

      .cls-16 {
        fill: url(#linear-gradient-14);
      }

      .cls-17 {
        fill: url(#linear-gradient-15);
      }

      .cls-18 {
        fill: url(#linear-gradient-16);
      }

      .cls-19 {
        fill: url(#linear-gradient-17);
      }

      .cls-20 {
        fill: url(#linear-gradient-18);
      }

      .cls-21 {
        fill: url(#linear-gradient-19);
      }

      .cls-22 {
        fill: url(#linear-gradient-20);
      }

      .cls-23 {
        fill: url(#linear-gradient-21);
      }

      .cls-24 {
        fill: url(#linear-gradient-22);
      }

      .cls-25 {
        fill: url(#linear-gradient-23);
      }

      .cls-26 {
        fill: url(#linear-gradient-24);
      }

      .cls-27 {
        fill: url(#linear-gradient-25);
      }

      .cls-28 {
        fill: url(#linear-gradient-26);
      }

      .cls-29 {
        fill: url(#linear-gradient-27);
      }

      .cls-30 {
        fill: url(#linear-gradient-28);
      }

      .cls-31 {
        fill: url(#linear-gradient-29);
      }

      .cls-32 {
        fill: url(#linear-gradient-30);
      }

      .cls-33 {
        fill: url(#linear-gradient-31);
      }

      .cls-34 {
        fill: url(#linear-gradient-32);
      }

      .cls-35 {
        fill: url(#linear-gradient-33);
      }

      .cls-36 {
        fill: url(#linear-gradient-34);
      }

      .cls-37 {
        fill: url(#linear-gradient-35);
      }

      .cls-38 {
        fill: url(#linear-gradient-36);
      }

      .cls-39 {
        fill: url(#linear-gradient-37);
      }

      .cls-40 {
        fill: url(#linear-gradient-38);
      }

      .cls-41 {
        fill: url(#linear-gradient-39);
      }

      .cls-42 {
        fill: url(#linear-gradient-40);
      }

      .cls-43 {
        fill: #ffc555;
      }

      .cls-44 {
        fill: #f5f5f5;
        mix-blend-mode: hard-light;
      }

      .cls-45 {
        fill: url(#linear-gradient-41);
      }

      .cls-46 {
        fill: url(#linear-gradient-42);
      }

      .cls-47 {
        fill: #e0e0e0;
      }

      .cls-48 {
        fill: #1487e3;
      }

      .cls-49 {
        fill: #78c2ff;
      }

      .cls-50 {
        fill: #eea886;
      }

      .cls-51 {
        fill: #282b45;
      }

      .cls-52 {
        fill: #292c47;
      }

      .cls-53 {
        fill: #3d416b;
      }

      .cls-54 {
        fill: #cfbeb6;
      }

      .cls-55 {
        fill: #fccca2;
      }

      .cls-56 {
        fill: #23263d;
      }

      .cls-57 {
        fill: #5a609c;
      }

      .cls-58 {
        fill: #807066;
      }

      .cls-59 {
        fill: #191b2b;
      }

      .cls-60 {
        fill: #a77860;
      }

      .cls-61 {
        fill: #414670;
      }

      .cls-62 {
        fill: #eddad3;
      }

      .cls-63 {
        fill: #4aafff;
      }

      .cls-64 {
        fill: #1a598c;
      }

      .cls-65 {
        fill: #2273b5;
      }

      .cls-66 {
        fill: #3788cc;
      }

      .cls-67 {
        fill: #e2d2ca;
      }

      .cls-68 {
        fill: #424773;
      }

      .cls-69 {
        fill: #3a3f47;
      }

      .cls-70 {
        fill: #323657;
      }

      .cls-71 {
        fill: #252840;
      }

      .cls-72 {
        fill: #eea987;
      }

      .cls-73 {
        fill: #e8734d;
      }

      .cls-74 {
        fill: #363a5e;
      }

      .cls-75 {
        fill: #313657;
      }

      .cls-76 {
        fill: #cfbeb8;
      }

      .cls-77 {
        fill: #494f80;
      }

      .cls-78 {
        fill: #707070;
      }

      .cls-79 {
        fill: #a1a1a1;
      }

      .cls-80 {
        fill: #fae6de;
      }

      .cls-81 {
        fill: #d6c5be;
      }

      .cls-82 {
        fill: #828282;
      }

      .cls-83 {
        fill: url(#linear-gradient-43);
      }

      .cls-84 {
        fill: url(#linear-gradient-44);
      }

      .cls-85 {
        fill: #fc5;
      }
    </style>
    <linearGradient id="linear-gradient" x1="95.71" y1="352.05" x2="155.14" y2="352.05" gradientUnits="userSpaceOnUse">
      <stop offset="0" stop-color="#40d5e6"/>
      <stop offset="1" stop-color="#57f"/>
    </linearGradient>
    <linearGradient id="linear-gradient-2" x1="139.31" y1="385.22" x2="193.05" y2="385.22" xlink:href="#linear-gradient"/>
    <linearGradient id="linear-gradient-3" x1="143.9" y1="393.03" x2="184.24" y2="393.03" xlink:href="#linear-gradient"/>
    <linearGradient id="linear-gradient-4" x1="129.33" y1="360.57" x2="176.31" y2="360.57" xlink:href="#linear-gradient"/>
    <linearGradient id="linear-gradient-5" x1="22.84" y1="382.44" x2="66.2" y2="382.44" gradientUnits="userSpaceOnUse">
      <stop offset="0" stop-color="#ff9340"/>
      <stop offset="1" stop-color="#ffce45"/>
    </linearGradient>
    <linearGradient id="linear-gradient-6" x1="118.55" y1="427.96" x2="161.91" y2="427.96" gradientUnits="userSpaceOnUse">
      <stop offset="0" stop-color="#c97332"/>
      <stop offset="1" stop-color="#ffce45"/>
    </linearGradient>
    <linearGradient id="linear-gradient-7" x1="-11517.27" y1="-350.67" x2="-11559.03" y2="-350.67" gradientTransform="translate(513.22 -11228.73) rotate(-90)" gradientUnits="userSpaceOnUse">
      <stop offset="0" stop-color="#ff9f55"/>
      <stop offset="1" stop-color="#ffd255"/>
    </linearGradient>
    <linearGradient id="linear-gradient-8" x1="-11151.64" y1="-12169.6" x2="-11193.4" y2="-12169.6" gradientTransform="translate(-10767.23 -11860.18) rotate(180)" xlink:href="#linear-gradient-7"/>
    <linearGradient id="linear-gradient-9" x1="459.7" y1="214.85" x2="126.35" y2="214.85" gradientTransform="matrix(1, 0, 0, 1, 0, 0)" xlink:href="#linear-gradient-7"/>
    <linearGradient id="linear-gradient-10" x1="459.7" y1="163.79" x2="126.35" y2="163.79" gradientTransform="matrix(1, 0, 0, 1, 0, 0)" xlink:href="#linear-gradient-7"/>
    <linearGradient id="linear-gradient-11" x1="459.71" y1="175.46" x2="126.34" y2="175.46" gradientTransform="matrix(1, 0, 0, 1, 0, 0)" xlink:href="#linear-gradient-7"/>
    <linearGradient id="linear-gradient-12" x1="459.69" y1="163.79" x2="126.35" y2="163.79" gradientTransform="matrix(1, 0, 0, 1, 0, 0)" xlink:href="#linear-gradient-7"/>
    <linearGradient id="linear-gradient-13" x1="459.71" y1="103.81" x2="126.34" y2="103.81" gradientTransform="matrix(1, 0, 0, 1, 0, 0)" xlink:href="#linear-gradient-7"/>
    <linearGradient id="linear-gradient-14" x1="459.69" y1="93.26" x2="126.35" y2="93.26" gradientTransform="matrix(1, 0, 0, 1, 0, 0)" xlink:href="#linear-gradient-7"/>
    <linearGradient id="linear-gradient-15" x1="459.7" y1="175.46" x2="126.35" y2="175.46" gradientTransform="matrix(1, 0, 0, 1, 0, 0)" xlink:href="#linear-gradient-7"/>
    <linearGradient id="linear-gradient-16" x1="459.7" y1="195.54" x2="126.34" y2="195.54" gradientTransform="matrix(1, 0, 0, 1, 0, 0)" xlink:href="#linear-gradient-7"/>
    <linearGradient id="linear-gradient-17" x1="459.7" y1="163.79" x2="126.35" y2="163.79" gradientTransform="matrix(1, 0, 0, 1, 0, 0)" xlink:href="#linear-gradient-7"/>
    <linearGradient id="linear-gradient-18" x1="459.7" y1="152.12" x2="126.35" y2="152.12" gradientTransform="matrix(1, 0, 0, 1, 0, 0)" xlink:href="#linear-gradient-7"/>
    <linearGradient id="linear-gradient-19" x1="459.7" y1="222.79" x2="126.35" y2="222.79" gradientTransform="matrix(1, 0, 0, 1, 0, 0)" xlink:href="#linear-gradient-7"/>
    <linearGradient id="linear-gradient-20" x1="459.7" y1="289.25" x2="126.36" y2="289.25" gradientTransform="matrix(1, 0, 0, 1, 0, 0)" xlink:href="#linear-gradient-7"/>
    <linearGradient id="linear-gradient-21" x1="459.7" y1="285.09" x2="126.34" y2="285.09" gradientTransform="matrix(1, 0, 0, 1, 0, 0)" xlink:href="#linear-gradient-7"/>
    <linearGradient id="linear-gradient-22" x1="555.41" y1="312.63" x2="222.06" y2="312.63" gradientTransform="matrix(1, 0, 0, 1, 0, 0)" xlink:href="#linear-gradient-7"/>
    <linearGradient id="linear-gradient-23" x1="459.7" y1="300.91" x2="126.35" y2="300.91" gradientTransform="matrix(1, 0, 0, 1, 0, 0)" xlink:href="#linear-gradient-7"/>
    <linearGradient id="linear-gradient-24" x1="459.7" y1="295.21" x2="126.34" y2="295.21" gradientTransform="matrix(1, 0, 0, 1, 0, 0)" xlink:href="#linear-gradient-7"/>
    <linearGradient id="linear-gradient-25" x1="459.7" y1="300.91" x2="126.35" y2="300.91" gradientTransform="matrix(1, 0, 0, 1, 0, 0)" xlink:href="#linear-gradient-7"/>
    <linearGradient id="linear-gradient-26" x1="459.7" y1="197.64" x2="126.34" y2="197.64" gradientTransform="matrix(1, 0, 0, 1, 0, 0)" xlink:href="#linear-gradient-7"/>
    <linearGradient id="linear-gradient-27" x1="459.7" y1="185.98" x2="126.36" y2="185.98" gradientTransform="matrix(1, 0, 0, 1, 0, 0)" xlink:href="#linear-gradient-7"/>
    <linearGradient id="linear-gradient-28" x1="459.7" y1="162.64" x2="126.37" y2="162.64" gradientTransform="matrix(1, 0, 0, 1, 0, 0)" xlink:href="#linear-gradient-7"/>
    <linearGradient id="linear-gradient-29" x1="459.7" y1="193.15" x2="126.35" y2="193.15" gradientTransform="matrix(1, 0, 0, 1, 0, 0)" xlink:href="#linear-gradient-7"/>
    <linearGradient id="linear-gradient-30" x1="459.7" y1="210.65" x2="126.35" y2="210.65" gradientTransform="matrix(1, 0, 0, 1, 0, 0)" xlink:href="#linear-gradient-7"/>
    <linearGradient id="linear-gradient-31" x1="459.7" y1="222.31" x2="126.35" y2="222.31" gradientTransform="matrix(1, 0, 0, 1, 0, 0)" xlink:href="#linear-gradient-7"/>
    <linearGradient id="linear-gradient-32" x1="459.7" y1="261.61" x2="126.35" y2="261.61" gradientTransform="matrix(1, 0, 0, 1, 0, 0)" xlink:href="#linear-gradient-7"/>
    <linearGradient id="linear-gradient-33" x1="459.7" y1="255.78" x2="126.35" y2="255.78" gradientTransform="matrix(1, 0, 0, 1, 0, 0)" xlink:href="#linear-gradient-7"/>
    <linearGradient id="linear-gradient-34" x1="459.7" y1="277.58" x2="126.34" y2="277.58" gradientTransform="matrix(1, 0, 0, 1, 0, 0)" xlink:href="#linear-gradient-7"/>
    <linearGradient id="linear-gradient-35" x1="459.7" y1="221.87" x2="126.35" y2="221.87" gradientTransform="matrix(1, 0, 0, 1, 0, 0)" xlink:href="#linear-gradient-7"/>
    <linearGradient id="linear-gradient-36" x1="459.7" y1="267.11" x2="126.35" y2="267.11" gradientTransform="matrix(1, 0, 0, 1, 0, 0)" xlink:href="#linear-gradient-7"/>
    <linearGradient id="linear-gradient-37" x1="555.41" y1="152.17" x2="222.06" y2="152.17" gradientTransform="matrix(1, 0, 0, 1, 0, 0)" xlink:href="#linear-gradient-7"/>
    <linearGradient id="linear-gradient-38" x1="459.7" y1="106.65" x2="126.35" y2="106.65" gradientTransform="matrix(1, 0, 0, 1, 0, 0)" xlink:href="#linear-gradient-7"/>
    <linearGradient id="linear-gradient-39" x1="555.41" y1="169.1" x2="222.05" y2="169.1" gradientTransform="matrix(1, 0, 0, 1, 0, 0)" xlink:href="#linear-gradient-7"/>
    <linearGradient id="linear-gradient-40" x1="459.7" y1="106.65" x2="126.35" y2="106.65" gradientTransform="matrix(1, 0, 0, 1, 0, 0)" xlink:href="#linear-gradient-7"/>
    <linearGradient id="linear-gradient-41" x1="973.98" y1="-11998.85" x2="932.22" y2="-11998.85" gradientTransform="translate(-11593.56 -887.27) rotate(90)" xlink:href="#linear-gradient-7"/>
    <linearGradient id="linear-gradient-42" x1="496.54" y1="321.65" x2="454.78" y2="321.65" gradientTransform="translate(-313.11 -255.82)" xlink:href="#linear-gradient-7"/>
    <linearGradient id="linear-gradient-43" x1="451.51" y1="96.93" x2="227.36" y2="96.93" gradientTransform="matrix(1, 0, 0, 1, 0, 0)" xlink:href="#linear-gradient-7"/>
    <linearGradient id="linear-gradient-44" x1="126.01" y1="155.06" x2="22.05" y2="155.06" gradientTransform="matrix(1, 0, 0, 1, 0, 0)" xlink:href="#linear-gradient-7"/>
  </defs>
  <title>tpqr</title>
  <g class="cls-1">
    <g id="Слой_1" data-name="Слой 1">
      <g>
        <g>
          <path class="cls-2" d="M100.9,273.52c5.13-2.45,10.23,13.86,10.23,13.86,8.71,11.51,20.88-3.8,19.69,13.41-2.08,30.1,34.65,9.46,17.71,40.9s15,17.77,4.43,43.12,3.12,55.57-12.73,43.15c0,0-14-30.6-28.35-40.07s8.63-20.7,4.12-33.56c-6.54-18.68-22.29-17.95-10.93-38S83.48,281.85,100.9,273.52Z" transform="translate(-95.71 -45.52)"/>
          <path class="cls-3" d="M145.25,416.44c-6.87-4.83-14.91-38.5-15.39-58.55-.25-10.27-3.28-14.55-6-18.33-2.56-3.61-4.77-6.72-3.49-13.88,2.47-13.68-4-19.58-4.07-19.64l.75-.85c.29.25,7,6.34,4.44,20.69-1.2,6.69.78,9.49,3.29,13,2.64,3.71,5.92,8.33,6.18,18.95.51,21.52,8.73,53.31,14.9,57.65Z" transform="translate(-95.71 -45.52)"/>
          <path class="cls-4" d="M147.82,418.94a15,15,0,0,1-2.91-.32,6.34,6.34,0,0,1-5.16-4.15c-1.85-5.3,2.44-13.9,5.92-18.05a26.45,26.45,0,0,0,5.27-17.06c-.1-1.66-.28-3.19-.43-4.54-.44-3.91-.75-6.73.93-8.62,1.47-1.66,4.33-2.38,9.54-2.4,9.15-.05,12.76-3.83,15.67-6.87a16.16,16.16,0,0,1,3.81-3.29h0c4.56-2.49,9.38-2.85,11.47-.87,1,.94,1.84,2.79.19,6.23a24.08,24.08,0,0,1-5,6.74c-2.11,2.15-3.51,3.58-2.78,6.41.17.67.36,1.34.56,2,1.41,4.82,3,10.29-5.24,14-1.75.79-3.35,1.42-4.75,2-5.76,2.26-9.24,3.62-13.16,11.91-.76,1.6-1.43,3.12-2.08,4.59C156.55,413.63,154.21,418.94,147.82,418.94ZM181,354.64a15.51,15.51,0,0,0-3.53,3.07c-3.06,3.2-6.86,7.18-16.48,7.22-4.79,0-7.48.65-8.71,2s-1,4.12-.64,7.73c.15,1.37.33,2.91.43,4.6a27.14,27.14,0,0,1-5.52,17.86c-3.45,4.11-7.36,12.28-5.72,16.94a5.26,5.26,0,0,0,4.31,3.42c7.77,1.57,9.91-3.29,13.47-11.35.65-1.47,1.32-3,2.09-4.62,4.12-8.69,8-10.2,13.77-12.48,1.4-.55,3-1.17,4.7-1.94,7.35-3.3,6-7.84,4.62-12.64-.2-.68-.4-1.37-.57-2.05-.89-3.45.86-5.23,3.06-7.48a22.86,22.86,0,0,0,4.82-6.44c.74-1.56,1.36-3.68.05-4.91-1.71-1.63-6.08-1.18-10.15,1Z" transform="translate(-95.71 -45.52)"/>
          <path class="cls-5" d="M145,425.5l-1.14-.06c.06-1.07,1.49-26.19,11.58-33.55,11.06-8.07,14.55-16.74,16.22-22.55,2-6.86,11.92-8.69,12.34-8.77l.2,1.12c-.1,0-9.69,1.79-11.45,8-1.71,6-5.29,14.89-16.64,23.16C146.49,399.85,145.05,425.24,145,425.5Z" transform="translate(-95.71 -45.52)"/>
          <path class="cls-6" d="M168.1,298.87c-7.17-2.45-5.68,11.37-8.71,21.59s-33.7,4.46-20.83,30.07-16.28,8.56-7.57,30.9.76,46.24,10.22,40.17,5.32-34.22,15.17-37.56,11.45-7.25,1.7-16.33,25.55-18.12,16.84-36.47S176.39,301.72,168.1,298.87Z" transform="translate(-95.71 -45.52)"/>
          <path class="cls-3" d="M145.61,420.52C144.7,416.7,137,383,144.19,379c6.33-3.59,6.18-17.54,5.19-30.71-.88-11.66,14.1-17.11,14.74-17.33l.38,1.07c-.15.05-14.8,5.38-14,16.18,1,13.52,1.12,27.88-5.76,31.78-5.46,3.09-.43,30.14,2,40.3Z" transform="translate(-95.71 -45.52)"/>
          <polygon class="cls-7" points="66.2 363.02 55.96 401.86 33.08 401.86 22.84 363.02 66.2 363.02"/>
          <path class="cls-8" d="M161.91,408.54s-22.54,4.23-22.54,38.84H128.79l-10.24-38.84Z" transform="translate(-95.71 -45.52)"/>
        </g>
        <polygon class="cls-9" points="141.67 288.54 145.56 288.54 145.56 326.42 183.43 326.42 183.43 330.31 141.67 330.31 141.67 288.54"/>
        <polygon class="cls-10" points="384.41 330.31 384.41 326.42 422.28 326.42 422.28 288.54 426.17 288.54 426.17 330.31 384.41 330.31"/>
        <g>
          <polygon class="cls-11" points="280.55 181.29 275.77 181.29 209.22 181.29 209.22 181.29 209.22 169.62 209.22 157.96 197.56 157.96 197.56 169.62 185.89 169.62 185.89 181.29 197.56 181.29 197.56 181.29 185.89 181.29 185.89 192.96 185.89 204.62 185.89 216.29 185.89 216.29 197.56 216.29 197.56 216.29 209.8 216.29 209.8 204.62 197.56 204.62 197.56 192.96 209.22 192.96 275.77 192.96 275.77 271.75 287.44 271.75 287.44 181.29 280.55 181.29"/>
          <rect class="cls-12" x="162.55" y="157.96" width="23.33" height="11.67"/>
          <rect class="cls-13" x="252.44" y="169.62" width="23.33" height="11.66"/>
          <rect class="cls-14" x="229.11" y="157.96" width="23.33" height="11.67"/>
          <rect class="cls-15" x="252.44" y="93.38" width="11.67" height="20.85"/>
          <rect class="cls-16" x="274.5" y="81.46" width="11.67" height="23.59"/>
          <rect class="cls-17" x="287.44" y="169.62" width="11.67" height="11.66"/>
          <rect class="cls-18" x="310.58" y="180.14" width="11.67" height="30.79"/>
          <rect class="cls-19" x="275.77" y="157.96" width="11.67" height="11.67"/>
          <polygon class="cls-20" points="310.77 157.96 310.77 146.29 299.11 146.29 287.44 146.29 287.44 157.96 299.11 157.96 310.77 157.96"/>
          <polygon class="cls-21" points="333.14 216.29 310.58 216.29 310.58 210.93 298.91 210.93 298.91 242.11 310.58 242.11 310.58 227.96 321.61 227.96 321.61 239.62 333.27 239.62 333.27 228.14 344.81 228.14 344.81 203.47 333.14 203.47 333.14 216.29"/>
          <rect class="cls-22" x="356.48" y="283.41" width="11.66" height="11.66"/>
          <polygon class="cls-23" points="263.68 261.76 252.01 261.76 252.01 271.75 252.01 283.41 252.01 308.42 263.68 308.42 263.68 283.41 275.77 283.41 275.77 271.75 263.68 271.75 263.68 261.76"/>
          <path class="cls-24" d="M326.12,273H258.61v79.27h79.27V340.6h-.1V284.66h.1V273H326.12Zm0,67.61H270.28V284.66h55.84Z" transform="translate(-95.71 -45.52)"/>
          <rect class="cls-25" x="368.14" y="295.08" width="23.33" height="11.67"/>
          <polygon class="cls-26" points="323.77 295.21 323.77 306.87 335.44 306.87 335.44 295.21 335.44 283.54 323.77 283.54 323.77 295.21"/>
          <rect class="cls-27" x="275.77" y="295.08" width="37.1" height="11.67"/>
          <rect class="cls-28" x="344.81" y="191.81" width="11.67" height="11.66"/>
          <rect class="cls-29" x="356.48" y="180.14" width="11.66" height="11.67"/>
          <rect class="cls-30" x="365.66" y="156.81" width="23.81" height="11.67"/>
          <polygon class="cls-31" points="400.65 204.81 400.65 193.15 400.65 181.48 388.99 181.48 388.99 193.15 377.32 193.15 377.32 204.81 388.99 204.81 400.65 204.81"/>
          <rect class="cls-32" x="365.66" y="204.81" width="11.67" height="11.67"/>
          <rect class="cls-33" x="377.32" y="216.48" width="11.67" height="11.67"/>
          <polygon class="cls-34" points="388.99 263.14 388.99 283.41 400.65 283.41 400.65 249.12 388.99 249.12 388.99 239.81 377.32 239.81 377.32 263.14 388.99 263.14"/>
          <polygon class="cls-35" points="344.81 260.08 312.88 260.08 312.88 271.75 344.81 271.75 344.81 283.41 356.48 283.41 356.48 271.75 356.48 239.81 377.32 239.81 377.32 228.14 344.81 228.14 344.81 239.81 344.81 260.08"/>
          <rect class="cls-36" x="287.44" y="271.75" width="25.44" height="11.67"/>
          <polygon class="cls-37" points="239.83 204.11 239.83 216.29 252.01 216.29 252.01 239.62 263.68 239.62 263.68 216.29 252.01 216.29 252.01 204.11 239.83 204.11"/>
          <rect class="cls-38" x="185.08" y="249.66" width="34.9" height="34.9"/>
          <path class="cls-39" d="M326.12,191.8h11.76V180.14h-.1V124.2h.1V112.54H258.61V191.8h67.51Zm-55.84-67.6h55.84v55.94H270.28Z" transform="translate(-95.71 -45.52)"/>
          <rect class="cls-40" x="185.08" y="89.2" width="34.9" height="34.9"/>
          <path class="cls-41" d="M497.65,124.2V112.54H418.38V138.9H393v11.67H381.87v18.36H371.48v-9.18H359.82v9.18H348.15v34.54h11.67V180.59h33.72v-30h24.84V191.8h22.14V214H418.05v11.66h34.14V191.8h45.46V180.14h-.1V124.2Zm-11.76,55.94H430.05V124.2h55.84Z" transform="translate(-95.71 -45.52)"/>
          <rect class="cls-42" x="344.86" y="89.2" width="34.9" height="34.9"/>
        </g>
        <polygon class="cls-43" points="311.49 13.87 310.07 13.87 314.41 5.09 315.83 5.09 311.49 13.87"/>
        <rect class="cls-43" x="265.71" y="13.07" width="68.89" height="1.09"/>
        <rect class="cls-43" x="265.71" y="16.61" width="36.8" height="6.32"/>
        <rect class="cls-43" x="310.07" y="1.62" width="19.17" height="3.47"/>
        <rect class="cls-43" x="310.07" width="19.17" height="0.65"/>
        <rect class="cls-44" x="42.07" y="162.55" width="197.97" height="193.02"/>
        <polygon class="cls-45" points="426.17 86.71 422.28 86.71 422.28 48.84 384.41 48.84 384.41 44.95 426.17 44.95 426.17 86.71"/>
        <polygon class="cls-46" points="183.43 44.95 183.43 48.84 145.56 48.84 145.56 86.71 141.67 86.71 141.67 44.95 183.43 44.95"/>
        <g>
          <rect class="cls-47" x="57.71" y="259.5" width="0.98" height="81.1"/>
          <rect class="cls-47" x="89.74" y="259.5" width="0.98" height="81.1"/>
          <rect class="cls-47" x="121.77" y="259.5" width="0.98" height="81.1"/>
          <rect class="cls-47" x="153.79" y="259.5" width="0.98" height="81.1"/>
          <rect class="cls-47" x="185.82" y="259.5" width="0.98" height="81.1"/>
          <rect class="cls-47" x="217.84" y="259.5" width="0.98" height="81.1"/>
        </g>
        <path class="cls-48" d="M165.05,386.11S179.3,334.05,198,339.56s12.7,29.54,28.09,29.54c12.94,0,12.94-40.56,29.48-40.1s15.08,30.47,33.57,11.18S304.55,318.6,314,318.6v67.51Z" transform="translate(-95.71 -45.52)"/>
        <path class="cls-49" d="M153.91,386.11S161.53,354,175,358.55s5.35,22.66,20.28,22.66,11.87-38.08,28.72-35.42,7.26,24.4,19.25,25S256.14,322,284,324.06s30,62.05,30,62.05Z" transform="translate(-95.71 -45.52)"/>
        <g>
          <path class="cls-50" d="M525.13,337.44a24.93,24.93,0,0,0-2.91-.18c-.94.05-5.08,2.38-6.48,2.31s-10.73-3.11-11.16-3.36.12-.91.12-.91l20.64-2Z" transform="translate(-95.71 -45.52)"/>
          <path class="cls-50" d="M511.47,333.51a12.48,12.48,0,0,0-3.33,2.05c-.23.24-.41.52-.27.83s.76.5,1.78.13a9.13,9.13,0,0,1,2.51-.38S513.09,335.46,511.47,333.51Z" transform="translate(-95.71 -45.52)"/>
          <path class="cls-51" d="M541.73,304.16l2.13,21.75s.93,2.68-5.16,3.67-15.93,3.12-15.93,3.12.16,7.26,1,7.3c2.37.13,20-2.86,27-4.34,5.54-1.17,2.07-30.82,2.07-30.82Z" transform="translate(-95.71 -45.52)"/>
          <path class="cls-50" d="M524.84,330.13a25.21,25.21,0,0,1-2.87.61c-.93.08-5.37-1.6-6.74-1.33s-10.15,4.67-10.54,5,.25.88.25.88l20.72-1.06Z" transform="translate(-95.71 -45.52)"/>
          <path class="cls-52" d="M547.73,445.1s-4.3,2.61-6.24,3.59-9.56,1.33-10.3,2.06-.44,3,.82,3.21,10.53.94,13.6.18,8.87.39,10.14-.06.37-7.33-.14-8.87S547.73,445.1,547.73,445.1Z" transform="translate(-95.71 -45.52)"/>
          <path class="cls-53" d="M547.34,442.29l.39,2.81s5.8,1,7.54.1l-.47-2.92Z" transform="translate(-95.71 -45.52)"/>
          <path class="cls-52" d="M535.9,343.69c-.16,1.95-.29,6.2-.39,10.66l-.06,3c-.11,6-.16,11.57-.16,11.57.28,7.56,1.48,23.92,3.73,27.6,3,5,6.56,46.22,6.56,46.22l11.16,1.2s.69-27.59-1-34.79c-1.86-8.05-5.43-19-3.39-26.34,1.28-4.59,4-19.37,4-19.37s2.86-16.63-.11-29.39C555.47,330.85,535.9,343.69,535.9,343.69Z" transform="translate(-95.71 -45.52)"/>
          <path class="cls-52" d="M528.57,445.1s-4.3,2.61-6.25,3.59S512.77,450,512,450.75s-.44,3,.82,3.21,10.52.94,13.6.18,8.87.39,10.14-.06.37-7.33-.15-8.87S528.57,445.1,528.57,445.1Z" transform="translate(-95.71 -45.52)"/>
          <path class="cls-53" d="M528.17,442.29l.4,2.81s5.79,1,7.54.1l-.47-2.92Z" transform="translate(-95.71 -45.52)"/>
          <path class="cls-52" d="M525.77,443.57h11.44s3.84-22.12,4.16-31.87h0a25.51,25.51,0,0,0,0-2.69c-.17-2.07-.42-4.33-.64-6.68a.11.11,0,0,0,0-.05c-.67-7-1.17-14.63,1.14-19.82,1.94-4.35,6.75-18.59,6.75-18.59s5.26-16,4.19-29.09c-.27-3.26-20.59,4.94-20.59,4.94A121.58,121.58,0,0,0,529.9,352c-2.76,25.36-1.73,41.88-1.73,41.88C529.75,399.52,525.77,443.57,525.77,443.57Z" transform="translate(-95.71 -45.52)"/>
          <path class="cls-54" d="M534,285.66s-4,9.43-4.79,14.48,2.53,18.89,2.68,21.75c.47,8.87.69,18.67.69,18.67l19.36,8.64a176.67,176.67,0,0,0,3.44-17.53,78.38,78.38,0,0,0-.51-23.52c-2.69-17.39-13.58-25.81-13.58-25.81Z" transform="translate(-95.71 -45.52)"/>
          <path class="cls-50" d="M519.27,268.68s-1.34,5.2.06,5.61c1.16.34.07,5.38,0,6.18s2.15.82,2.71,1.18,3.34,5.86,5.13,5.6,9-4.93,10.59-7.69.87-13.27-1.6-17.16S521.66,259.59,519.27,268.68Z" transform="translate(-95.71 -45.52)"/>
          <path class="cls-50" d="M530.19,281.48s.14.51.34,1.3c.09.33.18.7.28,1.12s.16.64.24,1l.09.37c.13.58.26,1.18.38,1.77a19.2,19.2,0,0,1,.5,3.86c-.1,2.32,8.17-8.65,8.17-8.65a111.65,111.65,0,0,1-2.77-15.6C536.57,258.29,530.19,281.48,530.19,281.48Z" transform="translate(-95.71 -45.52)"/>
          <path class="cls-55" d="M519,269.8a7.27,7.27,0,0,1-.06-9.14c3.68-4.8,13.72-.44,14.74-.43s6.4-1,6.12,9.22c-.26,9.05-.7,8.66-.7,8.66s-2.79-3.8-4-4.27c-1.83-.75-5.16.36-5.16.36s.56-4.69-2.12-4.68S521.34,268.22,519,269.8Z" transform="translate(-95.71 -45.52)"/>
          <path class="cls-50" d="M532.09,271.08c.08-.65.17-3.36,2.71-2.4s.19,6.59-.17,6.74S531.44,276.5,532.09,271.08Z" transform="translate(-95.71 -45.52)"/>
          <path class="cls-56" d="M531.3,343.71s.89-4.18,1.06-4.8l26.13,4.34-.27,3.38S539.4,345.5,531.3,343.71Z" transform="translate(-95.71 -45.52)"/>
          <path class="cls-57" d="M558.57,322.81a82.53,82.53,0,0,0,7.84,37.71c1.13,2.39-17.3,2.26-17.3,2.26Z" transform="translate(-95.71 -45.52)"/>
          <path class="cls-57" d="M531.65,306.64q.51,3,.89,6.06h0c.51,4,.86,8.09,1.08,12,0,.42,0,.83.07,1.24l.09,2q.06,1.32.09,2.61A90.05,90.05,0,0,0,541,362.71s13.21.91,16.61-.94A272.26,272.26,0,0,0,559,321.5c-.09-1.54-.19-3.08-.32-4.62h0c-1.34-16.21-7.73-31.88-17.43-34.54C541,282.56,529.85,296.09,531.65,306.64Z" transform="translate(-95.71 -45.52)"/>
          <rect class="cls-58" x="488.89" y="334.8" width="34.5" height="3.16" transform="translate(929.75 606.53) rotate(177.69)"/>
          <rect class="cls-58" x="467.36" y="320.31" width="34.5" height="3.16" transform="translate(249.73 841.25) rotate(-109.75)"/>
          <path class="cls-59" d="M536.11,392c1,6.29,5.16,19.43,5.26,19.72a25.51,25.51,0,0,0,0-2.69c-.17-2.07-.42-4.33-.64-6.68a.11.11,0,0,0,0-.05c-.22-2-1.68-5.79-2.65-8.35s-1.93-12.79-1.93-12.79A32.18,32.18,0,0,0,536.11,392Z" transform="translate(-95.71 -45.52)"/>
          <path class="cls-60" d="M531.14,285.25c.13.58.26,1.18.38,1.77,2.43-1.67,5.23-6.11,5.4-6.39C535.93,282.07,531.21,285.2,531.14,285.25Z" transform="translate(-95.71 -45.52)"/>
          <path class="cls-61" d="M533.69,323.72l.06,1.2c0,.65.07,1.3.09,1.94,3-.6,8.6-2.12,10.29-5.12,2.31-4.09-3.45-13.65-3.57-13.85.05.25,2.46,12,0,13.19C539,321.84,535.64,322.88,533.69,323.72Z" transform="translate(-95.71 -45.52)"/>
          <path class="cls-51" d="M531.69,293.69a71.84,71.84,0,0,0-.24,22.08c1.48,10.05,2.06,17.27,2.06,17.27l-.74,2.84-1.36-2.18s-2.33-12.88-2.77-18.24-.9-12.65,2.23-21.82Z" transform="translate(-95.71 -45.52)"/>
          <path class="cls-51" d="M531.83,293.7a1.5,1.5,0,0,1-.65.45c-.4.12-1.09-.45.59-3.53Z" transform="translate(-95.71 -45.52)"/>
          <path class="cls-62" d="M539.9,281.08s-5.1,6.49-8.45,8.26l.13,5.46,9.67-12.46Z" transform="translate(-95.71 -45.52)"/>
          <path class="cls-57" d="M551,298.9c-.39-2.48-3.29-13-9.25-11.48s-4.28,8.73-3,14.14c1.36,5.66,6.23,19.33,5.38,20.18s-7.75,4-9.25,4.5-11.07,3.56-11.81,3.87,3.7,8.14,3.7,8.14,23.84-8.13,27.88-10.76S551,298.9,551,298.9Z" transform="translate(-95.71 -45.52)"/>
        </g>
        <g>
          <path class="cls-63" d="M235.35,250.7a41.93,41.93,0,1,0-79,28.24c.31.89.66,1.76,1,2.62a41.94,41.94,0,0,0,77.94-30.86Zm-28.9,43.73A31.43,31.43,0,0,1,167,277.37c-.27-.64-.53-1.3-.77-2a31.44,31.44,0,1,1,40.19,19Z" transform="translate(-95.71 -45.52)"/>
          <path class="cls-64" d="M165.85,255.45l-10-3.13a42,42,0,0,1,38.78-29.43l.31,10.49a31.52,31.52,0,0,0-29.07,22.07Z" transform="translate(-95.71 -45.52)"/>
          <path class="cls-65" d="M167,277.37l-9.62,4.19c-.37-.86-.72-1.73-1-2.62a41.7,41.7,0,0,1-.55-26.62l10,3.13a31.27,31.27,0,0,0,.41,20C166.5,276.07,166.76,276.73,167,277.37Z" transform="translate(-95.71 -45.52)"/>
          <path class="cls-66" d="M163.91,292a41.88,41.88,0,0,1-6.5-10.44l9.62-4.19a31.19,31.19,0,0,0,4.88,7.83Z" transform="translate(-95.71 -45.52)"/>
        </g>
        <g>
          <rect class="cls-63" x="158.54" y="177.36" width="18.49" height="5.57" rx="1.01"/>
          <rect class="cls-47" x="158.54" y="190.72" width="18.49" height="5.57" rx="1.01"/>
          <rect class="cls-47" x="158.54" y="204.08" width="18.49" height="5.57" rx="1.01"/>
          <rect class="cls-47" x="158.54" y="217.44" width="18.49" height="5.57" rx="1.01"/>
          <rect class="cls-47" x="158.54" y="230.8" width="18.49" height="5.57" rx="1.01"/>
          <rect class="cls-47" x="158.54" y="244.16" width="18.49" height="5.57" rx="1.01"/>
        </g>
        <g>
          <rect class="cls-63" x="184.66" y="177.36" width="34.17" height="5.57" rx="0.91"/>
          <rect class="cls-47" x="184.66" y="190.72" width="34.17" height="5.57" rx="0.91"/>
          <rect class="cls-47" x="184.66" y="204.08" width="34.17" height="5.57" rx="0.91"/>
          <rect class="cls-47" x="184.66" y="217.44" width="34.17" height="5.57" rx="0.91"/>
          <rect class="cls-47" x="184.66" y="230.8" width="34.17" height="5.57" rx="0.91"/>
          <rect class="cls-47" x="184.66" y="244.16" width="34.17" height="5.57" rx="0.91"/>
        </g>
        <g>
          <polygon class="cls-52" points="130.19 260.69 148.02 270.49 165.93 242.31 144.27 234.79 130.19 260.69"/>
          <polygon class="cls-67" points="131.32 259.84 148 269.01 164.75 242.66 144.49 235.62 131.32 259.84"/>
          <path class="cls-50" d="M220.92,300.43s3.11-1.48,4.47-2.26,4.87-1.84,5.15-2.09,10.39-.88,11-1.41,1.21,1.24-1.41,1.82-6.26,2-6.46,3,2.69,1.26,3,2.11-.08.65-.5.83-3.43-1.49-4.76-1-3.36-.18-4.38.17l-6,2Z" transform="translate(-95.71 -45.52)"/>
          <path class="cls-50" d="M244.6,312.48s2.61-2.35,3.87-3.33,3.63-3.87,4-4,4.87-9.45,5.61-9.82-.7-1.62-2.26.62-4.3,5.13-5.34,4.92-.15-3-.83-3.63-.65-.18-1,.14.07,3.82-.9,4.89-1.13,3.24-1.86,4.07l-4.22,4.84Z" transform="translate(-95.71 -45.52)"/>
          <path class="cls-68" d="M188.44,437.92s-.56,3.91-.63,4.5-6.27-.35-6.27-.35l-.51-4.66S187.67,437.36,188.44,437.92Z" transform="translate(-95.71 -45.52)"/>
          <path class="cls-52" d="M187.88,441.92a16.71,16.71,0,0,0,3.86,3.39c1.9,1,4.89,1.43,6,2.5.81.77,3,4.07-4.94,4s-11.71.47-12.55-.8,1.22-9.36,1.22-9.36S183.36,442.33,187.88,441.92Z" transform="translate(-95.71 -45.52)"/>
          <path class="cls-68" d="M232.9,437.92s-.56,3.91-.64,4.5-6.27-.35-6.27-.35l-.5-4.66S232.12,437.36,232.9,437.92Z" transform="translate(-95.71 -45.52)"/>
          <path class="cls-52" d="M232.33,441.92a16.85,16.85,0,0,0,3.87,3.39c1.9,1,8.9,1.87,10,2.94.81.76,2.16,3.86-8.95,3.57-7.89-.21-11.7.47-12.55-.8s1.22-9.36,1.22-9.36S227.71,442.37,232.33,441.92Z" transform="translate(-95.71 -45.52)"/>
          <path class="cls-52" d="M193.58,337.31s-5.83,9.27-5.39,17.64-2.12,17.51-3,26.26c-1,9.75-5,32.83-5.12,38s.62,21.87.62,21.87l8,.19s6.72-40.36,8.46-44.48,10.36-33.47,10.65-36.76S193.58,337.31,193.58,337.31Z" transform="translate(-95.71 -45.52)"/>
          <path class="cls-52" d="M224.27,338.57s4.39,22.94,5,28.07,1,24.8,1.26,28,1.93,41.91,3.48,46.67H223.76s-7.85-28.14-7.85-41.45-6.07-28.95-10-37.73-12.88-9-15.28-25.29C190.65,336.84,221,333.4,224.27,338.57Z" transform="translate(-95.71 -45.52)"/>
          <path class="cls-50" d="M203.31,259.44s7.82-2.92,11.43,3,3.26,17.88-.68,19.34-9.87.7-11.89-3-3.84-9.12-3.75-12.72S201.26,260.48,203.31,259.44Z" transform="translate(-95.71 -45.52)"/>
          <path class="cls-50" d="M213.21,282.1a6.71,6.71,0,0,0,.21,3.15c.54,1-10.13,1.07-10.13,1.07a70.26,70.26,0,0,0-2.52-10.45C199.13,271.09,213.21,282.1,213.21,282.1Z" transform="translate(-95.71 -45.52)"/>
          <path class="cls-69" d="M200.77,275.87s.74,1.22,3.75.75,6.68-4.48,7.93-4.91,1.27-1.18,1.27-1.18l.79,1.15,1.33.08s-1.22-3.58.62-5-1.91-11.58-11.55-8.21c0,0-7.41,2-7.14,6.25S199.12,273.78,200.77,275.87Z" transform="translate(-95.71 -45.52)"/>
          <path class="cls-67" d="M214.06,285.12s0-2-.94-2.17-10-1.07-11.05-.63v2.32S204.2,286,214.06,285.12Z" transform="translate(-95.71 -45.52)"/>
          <path class="cls-50" d="M213.52,269c-.17-.71-2-2.73-2.65-.57s1,5.07,2,4.82S214,270.79,213.52,269Z" transform="translate(-95.71 -45.52)"/>
          <path class="cls-70" d="M250,308.62h0C250,308.64,250,308.65,250,308.62Z" transform="translate(-95.71 -45.52)"/>
          <path class="cls-70" d="M187,359.38a82.63,82.63,0,0,0,13,2.31c8.18.9,28.63-.32,28.76-1.29s-4.4-36-4.15-37.8.4-8.23.4-8.23a45.41,45.41,0,0,0,4.06,12.87c.78,1.42,3.41,5.86,4.68,4.85,6.12-4.89,15.61-23.32,16.21-23.47-.51-.22-4.5-2.06-5.06-2.25s-4.91,4.52-7.58,7.42c-1.2,1.29-2.05,2.23-2.05,2.23-.77-1.74-3.59-12.7-4.46-16.49-2-8.55-1.67-8.91-1.67-8.91-6-1.81-15.07-5.5-15.07-5.5l-12-.48s-11,2.42-15.34,4.38c-.41.18-.41,9.81-1.54,12.34l3.59,7.58s2.08,15,2.51,21.69C191.48,333.7,187,359.38,187,359.38Z" transform="translate(-95.71 -45.52)"/>
          <path class="cls-70" d="M184.69,313.86c.31,1,1.73,1.87,2.66,2.24a3.37,3.37,0,0,0,1.92.19l.47-.08h0l8.21-1.53s1.8-20.7-11.22-25.66C186.38,289.13,181.81,304.59,184.69,313.86Z" transform="translate(-95.71 -45.52)"/>
          <path class="cls-71" d="M187.35,316.1h0a3.37,3.37,0,0,0,1.92.19l.47-.08h0l-.81-10.59Z" transform="translate(-95.71 -45.52)"/>
          <path class="cls-71" d="M235.26,316l1,4.25a33.65,33.65,0,0,0,1-6.48C236.11,315.08,235.26,316,235.26,316Z" transform="translate(-95.71 -45.52)"/>
          <path class="cls-69" d="M201.08,260.15s-10.25-1.19-.17,15.94Z" transform="translate(-95.71 -45.52)"/>
          <polygon class="cls-52" points="157.69 240.8 158.73 239.01 150.52 236.18 149.48 237.96 157.69 240.8"/>
        </g>
        <g>
          <g>
            <path class="cls-72" d="M357.33,302.53s1.62-1.5,1.3-2.63a4.91,4.91,0,0,1,.24-2.48c.14-.6.2-2.52.64-2.41.75.18.57,3.24.66,3.9s2.07-1.54,2.75-1.65,4.11,3.36,2.58,4.7-3.64,1.89-3.87,2.18a11.63,11.63,0,0,1-1.26,1.08Z" transform="translate(-95.71 -45.52)"/>
            <path class="cls-72" d="M362.49,297.49s4.95-3.8,5.49-3.78.74.31.29.68l-4.68,3.81s6.62-3.51,7.07-3.59c.26-.05.46.46.24.68s-6.39,4.1-6.39,4.1,6.19-3.27,6.58-3.22a.48.48,0,0,1,.15.88c-.44.28-6,3.63-6,3.63s4.65-2.09,5-1.86.46.47-.76,1a43.33,43.33,0,0,0-3.86,2.11Z" transform="translate(-95.71 -45.52)"/>
          </g>
          <path class="cls-73" d="M322.9,256.71s11.86-1,11.53,11.49-2.3,14.35,0,23.16-11.56-5-11.56-5Z" transform="translate(-95.71 -45.52)"/>
          <path class="cls-74" d="M286.78,443.37s-4.4,6.18-3.79,7.16,5.23,1.12,8.05,0,2.88-8.36,4.16-11.48c.53-1.3-.61-5.15-2.22-5.43a6.52,6.52,0,0,0-3.35.54S291.3,438.55,286.78,443.37Z" transform="translate(-95.71 -45.52)"/>
          <path class="cls-50" d="M289.6,434.11a29.43,29.43,0,0,0-1.26,5.15c-.28,2.08-3.14,6.51-3,7.07s3.76,1.07,5.24-.37,2.42-5.65,2.75-8.16a20.79,20.79,0,0,1,.68-3.49S291,432.57,289.6,434.11Z" transform="translate(-95.71 -45.52)"/>
          <path class="cls-74" d="M325.1,443.47s-4.24,6.08-3.64,7.06,5.24,1.12,8.05,0,2.89-8.36,4.16-11.48c.54-1.3-.6-5.15-2.21-5.43a6.93,6.93,0,0,0-3.49.6S329.61,438.65,325.1,443.47Z" transform="translate(-95.71 -45.52)"/>
          <path class="cls-50" d="M328,434.22a42.09,42.09,0,0,1-.87,4.9c-.54,2-3.42,6.65-3.29,7.21s3.76,1.07,5.23-.37,2.62-5.63,2.76-8.16a14.08,14.08,0,0,0-.34-4.18A3.17,3.17,0,0,0,328,434.22Z" transform="translate(-95.71 -45.52)"/>
          <path class="cls-75" d="M306.76,333.54s-3.77,18.34-4.64,22.95-3.3,27-3.56,30.78-3.94,18.13-3.77,19.49-6,28.28-6,28.28,4.35.47,6.09-.26c1.19-.5,10.73-24.78,10.73-31.56,0-9.39,5.24-21.64,6-23.78,7.47-21,8.85-26,9.89-27.29,0,0,.15,1.72.51,4.57.41,3.28,2.19,26.68,3,29.76s.18,13.49.61,18.74,1.24,29.2,1.24,29.2,3.92.17,5.64-.86c.58-.34,2.58-25.74,2.66-32s.18-14.87.35-17.57c1.61-25.88,5.56-29.58-.66-47.9C323.21,301.81,306.76,333.54,306.76,333.54Z" transform="translate(-95.71 -45.52)"/>
          <polygon class="cls-74" points="199.61 392.99 199.61 399.46 198.8 399.46 198.8 394.46 199.61 392.99"/>
          <polygon class="cls-74" points="238.08 392.99 238.08 399.46 237.28 399.46 237.28 394.46 238.08 392.99"/>
          <path class="cls-50" d="M318,289.9a47.35,47.35,0,0,0,1.82-5.2c0-.13.07-.26.11-.4.09-.35.17-.72.25-1.08l.12-.61a8.47,8.47,0,0,0,0-4c-1.15-3.4,7.21-1.05,7.21-1.05s-1.62,9,0,12S318,289.9,318,289.9Z" transform="translate(-95.71 -45.52)"/>
          <path class="cls-62" d="M332.14,289.75c.93-1.17-5.61-1.57-5.61-1.57l-7.64-.66a67.77,67.77,0,0,0-9.32,2.28c-4.08,1.41-9.42,9.13-9.42,9.13s7.37,17.29,8.78,22.25-1.6,17.59-1.6,17.59c8.83,4.8,26.26.51,26.26.51S326.64,296.64,332.14,289.75Z" transform="translate(-95.71 -45.52)"/>
          <path class="cls-76" d="M335.25,310.59s-.34.72-1.28,3.57a57.13,57.13,0,0,1-.46-12.18A30.43,30.43,0,0,0,335.25,310.59Z" transform="translate(-95.71 -45.52)"/>
          <path class="cls-50" d="M327,287.91l-9,7.33.93-7.72S324.13,286.39,327,287.91Z" transform="translate(-95.71 -45.52)"/>
          <path class="cls-77" d="M332.88,318.78c-1.24,5.13,5,21.17,5,21.17l-10.56,3.57a2.24,2.24,0,0,1-2.93-1.74c-1.19-6.67-4.28-24.56-4.63-32.5-.43-9.85,6.74-21.48,6.74-21.48,12.76,2.19,9.26,21.48,9.26,21.48s-.46,1.22-1.08,3.12h0c-.15.48-.32,1-.49,1.55C333.77,315.38,333.3,317,332.88,318.78Z" transform="translate(-95.71 -45.52)"/>
          <path class="cls-77" d="M318,287.94l.15-.42s-6.53,1-9.85,2.65-9.67,10.22-9.67,10.22l8.31,11c0,8.43-2.93,28.22-2.93,28.22l5.77,2.36a1.38,1.38,0,0,0,1.91-1.25c.09-6,.37-23.87.51-30.83.17-8.43,6.19-22.07,6.19-22.07Z" transform="translate(-95.71 -45.52)"/>
          <path class="cls-50" d="M306.14,327.48a69.41,69.41,0,0,0,7.25,0c1-.24,7.47-3.06,7.87-5.85s-15.12,2.5-15.12,2.5Z" transform="translate(-95.71 -45.52)"/>
          <polygon class="cls-78" points="229.88 273.26 204.45 270.28 215.94 279.63 229.88 273.26"/>
          <polygon class="cls-79" points="215.94 279.63 229.88 274.88 229.88 273.26 215.47 277.89 215.94 279.63"/>
          <polygon class="cls-80" points="223.65 240.58 218.82 248.25 216.48 249.72 221.93 242.08 223.65 240.58"/>
          <polygon class="cls-81" points="218.82 248.25 222.26 249.72 223.18 242 223.65 240.58 218.82 248.25"/>
          <path class="cls-77" d="M306.91,323.9a19.41,19.41,0,0,0,0,3.92s-15.69-1.57-17.15-3.77a9.46,9.46,0,0,1-1.41-4.85Z" transform="translate(-95.71 -45.52)"/>
          <polygon class="cls-79" points="215.94 279.63 208.52 252.06 180.32 249.08 188.05 274.46 215.94 279.63"/>
          <path class="cls-77" d="M348.2,309.39c1.42-1.17,2.25-1.6,3.95-3.07,2.65-2.28,6.05-5.17,6.05-5.17l3.22,4.73s-7.8,6.85-11.94,10.92h0s-5.24,5.63-6.42,5.13-5.35-6.55-8.68-12.38-4.84-9.54-5-12.08,8.24-3.76,8.24-3.76l6.57,14.36a20.81,20.81,0,0,0,1.77,2.68S347.42,309.91,348.2,309.39Z" transform="translate(-95.71 -45.52)"/>
          <path class="cls-50" d="M324.06,258a10.07,10.07,0,0,0-11.57,8,24.94,24.94,0,0,0,.32,3.85c.32,1.72-1.72,6.44-1.36,6.73a11.07,11.07,0,0,0,1.92.77s1.12,5.54,3,5.71,9.15-.48,13.25-6.75S335.92,259.92,324.06,258Z" transform="translate(-95.71 -45.52)"/>
          <path class="cls-73" d="M312.49,266s4.42,3.82,9.11,5,7.16,6.47,7.16,6.47,8.29-8.27,3.29-16.29S312.5,256.7,312.49,266Z" transform="translate(-95.71 -45.52)"/>
          <path class="cls-73" d="M322.46,271.25s4.91,12.87,4.33,16c0,0,2.42-.42,6.94,1C333.73,288.18,331.55,265.19,322.46,271.25Z" transform="translate(-95.71 -45.52)"/>
          <polygon class="cls-81" points="224.85 248.47 222.26 249.72 231.08 240.97 224.85 248.47"/>
          <polygon class="cls-80" points="231.08 240.97 224.85 248.47 228.26 251.51 231.94 242.53 231.08 240.97"/>
          <path class="cls-60" d="M325.08,280.66c0,.06-1.39,2.16-5.19,3.64.09-.35.17-.72.25-1.08l.12-.61A17.79,17.79,0,0,0,325.08,280.66Z" transform="translate(-95.71 -45.52)"/>
          <path class="cls-82" d="M294.73,309.1c.78,1.48.77,3,0,3.45s-2.09-.43-2.87-1.91-.77-3,0-3.44S293.94,307.63,294.73,309.1Z" transform="translate(-95.71 -45.52)"/>
          <path class="cls-77" d="M327.65,288.05a9.77,9.77,0,0,1,10.61,7.48S327.81,294.41,327.65,288.05Z" transform="translate(-95.71 -45.52)"/>
        </g>
        <polygon class="cls-83" points="451.51 169.62 449.92 169.62 449.92 25.83 345.89 25.83 345.89 41.67 227.37 41.67 227.37 40.09 344.31 40.09 344.31 24.25 451.51 24.25 451.51 169.62"/>
        <polygon class="cls-84" points="23.64 203.47 22.05 203.47 22.05 145.49 124.42 145.49 124.42 106.65 126.01 106.65 126.01 147.08 23.64 147.08 23.64 203.47"/>
        <rect class="cls-85" x="68.98" y="114.29" width="30.83" height="2.16"/>
        <rect class="cls-85" x="68.98" y="118.36" width="30.83" height="9.09"/>
        <rect class="cls-85" x="96.11" y="130.5" width="18.19" height="1.36"/>
        <rect class="cls-85" x="96.11" y="132.46" width="18.19" height="3.68"/>
        <rect class="cls-85" x="99.13" y="101.99" width="1.36" height="25.46"/>
      </g>
    </g>
  </g>
</svg>
