<?xml version="1.0" standalone="no"?>
<!DOCTYPE svg PUBLIC "-//W3C//DTD SVG 20010904//EN"
 "http://www.w3.org/TR/2001/REC-SVG-20010904/DTD/svg10.dtd">
<svg version="1.0" xmlns="http://www.w3.org/2000/svg"
 width="196.000000pt" height="196.000000pt" viewBox="0 0 196.000000 196.000000"
 preserveAspectRatio="xMidYMid meet">
<metadata>
Created by potrace 1.11, written by Peter Selinger 2001-2013
</metadata>
<g transform="translate(0.000000,196.000000) scale(0.100000,-0.100000)"
fill="#000000" stroke="none">
<path d="M730 1505 l0 -75 -120 0 c-113 0 -120 -1 -121 -20 0 -11 -1 -45 -1
-75 l-1 -55 -123 0 -122 0 0 -47 c0 -27 0 -60 -1 -75 l-1 -28 -120 0 -120 0 0
-225 c0 -173 3 -225 13 -226 6 0 60 -1 119 -1 91 -1 108 -4 109 -17 0 -9 1
-42 0 -74 0 -65 -17 -59 145 -57 l101 1 1 -58 c0 -32 1 -67 1 -78 1 -20 7 -20
469 -18 257 1 476 2 488 2 19 1 21 6 19 71 -1 77 2 81 70 79 17 -1 63 -1 103
0 l73 1 -3 73 -3 72 123 0 c109 0 122 2 123 18 1 22 1 529 0 562 l-1 25 -120
0 -120 0 0 75 0 74 -122 3 -123 3 0 73 0 72 -367 0 -368 0 0 -75z m-238 -453
l3 -75 605 0 605 0 0 -71 -1 -71 -121 -3 -122 -3 1 -62 c0 -34 0 -68 -1 -74
-1 -10 -57 -13 -243 -13 l-243 0 2 75 2 75 -367 2 -367 3 -1 140 c0 77 1 143
3 146 1 3 56 6 122 7 l120 0 3 -76z"/>
</g>
</svg>
